<mxfile host="app.diagrams.net" agent="Mozilla/5.0 (Windows NT 10.0; Win64; x64) AppleWebKit/537.36 (KHTML, like Gecko) Chrome/138.0.0.0 Safari/537.36" version="28.0.9">
  <diagram name="Page-1" id="aBFS7e_nygOSRtFvjxHp">
    <mxGraphModel dx="5757" dy="667" grid="1" gridSize="10" guides="1" tooltips="1" connect="1" arrows="1" fold="1" page="1" pageScale="1" pageWidth="850" pageHeight="1100" math="0" shadow="0">
      <root>
        <mxCell id="0" />
        <mxCell id="1" parent="0" />
        <mxCell id="xI2tX_Hjlg2Yhiu6L8t_-356" value="" style="group" vertex="1" connectable="0" parent="1">
          <mxGeometry x="-3950" y="470" width="5840" height="3300" as="geometry" />
        </mxCell>
        <mxCell id="xI2tX_Hjlg2Yhiu6L8t_-66" value="&amp;lt;&amp;lt;iterative&amp;gt;&amp;gt;" style="dashed=1;rounded=1;absoluteArcSize=1;arcSize=20;html=1;verticalAlign=top;align=left;spacingTop=5;spacingLeft=10;whiteSpace=wrap;" vertex="1" parent="xI2tX_Hjlg2Yhiu6L8t_-356">
          <mxGeometry width="5840" height="3300" as="geometry" />
        </mxCell>
        <mxCell id="xI2tX_Hjlg2Yhiu6L8t_-8" value="Console Display option to manage routine entries" style="rounded=1;whiteSpace=wrap;html=1;arcSize=40;fontColor=#000000;fillColor=#ffffc0;strokeColor=#ff0000;" vertex="1" parent="xI2tX_Hjlg2Yhiu6L8t_-356">
          <mxGeometry x="4305" y="20" width="120" height="60" as="geometry" />
        </mxCell>
        <mxCell id="xI2tX_Hjlg2Yhiu6L8t_-9" value="" style="html=1;verticalAlign=bottom;endArrow=open;endSize=8;strokeColor=#ff0000;rounded=0;" edge="1" source="xI2tX_Hjlg2Yhiu6L8t_-8" parent="xI2tX_Hjlg2Yhiu6L8t_-356" target="xI2tX_Hjlg2Yhiu6L8t_-10">
          <mxGeometry relative="1" as="geometry">
            <mxPoint x="4360" y="160" as="targetPoint" />
          </mxGeometry>
        </mxCell>
        <mxCell id="xI2tX_Hjlg2Yhiu6L8t_-10" value="" style="shape=line;html=1;strokeWidth=6;strokeColor=#ff0000;" vertex="1" parent="xI2tX_Hjlg2Yhiu6L8t_-356">
          <mxGeometry x="3785" y="180" width="1160" height="10" as="geometry" />
        </mxCell>
        <mxCell id="xI2tX_Hjlg2Yhiu6L8t_-77" value="" style="shape=line;html=1;strokeWidth=6;strokeColor=#ff0000;" vertex="1" parent="xI2tX_Hjlg2Yhiu6L8t_-356">
          <mxGeometry x="3550" y="3180" width="1200" height="10" as="geometry" />
        </mxCell>
        <mxCell id="xI2tX_Hjlg2Yhiu6L8t_-349" value="" style="group" vertex="1" connectable="0" parent="xI2tX_Hjlg2Yhiu6L8t_-356">
          <mxGeometry x="1240" y="460" width="120" height="1770" as="geometry" />
        </mxCell>
        <mxCell id="xI2tX_Hjlg2Yhiu6L8t_-90" value="" style="group" vertex="1" connectable="0" parent="xI2tX_Hjlg2Yhiu6L8t_-349">
          <mxGeometry width="120" height="1770" as="geometry" />
        </mxCell>
        <mxCell id="xI2tX_Hjlg2Yhiu6L8t_-81" value="User selected to list all routine (2)" style="rounded=1;whiteSpace=wrap;html=1;arcSize=40;fontColor=#000000;fillColor=#ffffc0;strokeColor=#ff0000;" vertex="1" parent="xI2tX_Hjlg2Yhiu6L8t_-90">
          <mxGeometry width="120" height="48.16326530612245" as="geometry" />
        </mxCell>
        <mxCell id="xI2tX_Hjlg2Yhiu6L8t_-82" value="" style="edgeStyle=orthogonalEdgeStyle;html=1;verticalAlign=bottom;endArrow=open;endSize=8;strokeColor=#ff0000;rounded=0;entryX=0.5;entryY=0;entryDx=0;entryDy=0;" edge="1" source="xI2tX_Hjlg2Yhiu6L8t_-81" parent="xI2tX_Hjlg2Yhiu6L8t_-90" target="xI2tX_Hjlg2Yhiu6L8t_-83">
          <mxGeometry relative="1" as="geometry">
            <mxPoint x="60" y="120.40816326530613" as="targetPoint" />
          </mxGeometry>
        </mxCell>
        <mxCell id="xI2tX_Hjlg2Yhiu6L8t_-83" value="UI send message to the service to get all routine" style="rounded=1;whiteSpace=wrap;html=1;arcSize=40;fontColor=#000000;fillColor=#ffffc0;strokeColor=#ff0000;" vertex="1" parent="xI2tX_Hjlg2Yhiu6L8t_-90">
          <mxGeometry y="686.3265306122448" width="120" height="60.204081632653065" as="geometry" />
        </mxCell>
        <mxCell id="xI2tX_Hjlg2Yhiu6L8t_-84" value="" style="edgeStyle=orthogonalEdgeStyle;html=1;verticalAlign=bottom;endArrow=open;endSize=8;strokeColor=#ff0000;rounded=0;entryX=0.5;entryY=0;entryDx=0;entryDy=0;" edge="1" source="xI2tX_Hjlg2Yhiu6L8t_-83" parent="xI2tX_Hjlg2Yhiu6L8t_-90" target="xI2tX_Hjlg2Yhiu6L8t_-85">
          <mxGeometry relative="1" as="geometry">
            <mxPoint x="60" y="818.7755102040816" as="targetPoint" />
          </mxGeometry>
        </mxCell>
        <mxCell id="xI2tX_Hjlg2Yhiu6L8t_-85" value="Routine Service get all routine and return it to UI" style="rounded=1;whiteSpace=wrap;html=1;arcSize=40;fontColor=#000000;fillColor=#ffffc0;strokeColor=#ff0000;" vertex="1" parent="xI2tX_Hjlg2Yhiu6L8t_-90">
          <mxGeometry y="1240.204081632653" width="120" height="60.204081632653065" as="geometry" />
        </mxCell>
        <mxCell id="xI2tX_Hjlg2Yhiu6L8t_-86" value="" style="edgeStyle=orthogonalEdgeStyle;html=1;verticalAlign=bottom;endArrow=open;endSize=8;strokeColor=#ff0000;rounded=0;entryX=0.5;entryY=0;entryDx=0;entryDy=0;" edge="1" source="xI2tX_Hjlg2Yhiu6L8t_-85" parent="xI2tX_Hjlg2Yhiu6L8t_-90" target="xI2tX_Hjlg2Yhiu6L8t_-87">
          <mxGeometry relative="1" as="geometry">
            <mxPoint x="60" y="1372.6530612244896" as="targetPoint" />
          </mxGeometry>
        </mxCell>
        <mxCell id="xI2tX_Hjlg2Yhiu6L8t_-87" value="UI display the list of routine that they added" style="rounded=1;whiteSpace=wrap;html=1;arcSize=40;fontColor=#000000;fillColor=#ffffc0;strokeColor=#ff0000;" vertex="1" parent="xI2tX_Hjlg2Yhiu6L8t_-90">
          <mxGeometry y="1709.795918367347" width="120" height="60.204081632653065" as="geometry" />
        </mxCell>
        <mxCell id="xI2tX_Hjlg2Yhiu6L8t_-350" value="" style="group" vertex="1" connectable="0" parent="xI2tX_Hjlg2Yhiu6L8t_-356">
          <mxGeometry x="1450" y="480" width="465" height="1610" as="geometry" />
        </mxCell>
        <mxCell id="xI2tX_Hjlg2Yhiu6L8t_-121" value="" style="group" vertex="1" connectable="0" parent="xI2tX_Hjlg2Yhiu6L8t_-350">
          <mxGeometry width="465" height="1610" as="geometry" />
        </mxCell>
        <mxCell id="xI2tX_Hjlg2Yhiu6L8t_-92" value="User selected to list routine by type (3)" style="rounded=1;whiteSpace=wrap;html=1;arcSize=40;fontColor=#000000;fillColor=#ffffc0;strokeColor=#ff0000;" vertex="1" parent="xI2tX_Hjlg2Yhiu6L8t_-121">
          <mxGeometry x="172.5" width="120" height="54.576271186440685" as="geometry" />
        </mxCell>
        <mxCell id="xI2tX_Hjlg2Yhiu6L8t_-93" value="" style="edgeStyle=orthogonalEdgeStyle;html=1;verticalAlign=bottom;endArrow=open;endSize=8;strokeColor=#ff0000;rounded=0;entryX=0.5;entryY=0;entryDx=0;entryDy=0;" edge="1" source="xI2tX_Hjlg2Yhiu6L8t_-92" parent="xI2tX_Hjlg2Yhiu6L8t_-121" target="xI2tX_Hjlg2Yhiu6L8t_-97">
          <mxGeometry relative="1" as="geometry">
            <mxPoint x="232.5" y="163.72881355932205" as="targetPoint" />
          </mxGeometry>
        </mxCell>
        <mxCell id="xI2tX_Hjlg2Yhiu6L8t_-97" value="UI display user which type to list" style="rounded=1;whiteSpace=wrap;html=1;arcSize=40;fontColor=#000000;fillColor=#ffffc0;strokeColor=#ff0000;" vertex="1" parent="xI2tX_Hjlg2Yhiu6L8t_-121">
          <mxGeometry x="172.5" y="163.72881355932205" width="120" height="54.576271186440685" as="geometry" />
        </mxCell>
        <mxCell id="xI2tX_Hjlg2Yhiu6L8t_-98" value="" style="edgeStyle=orthogonalEdgeStyle;html=1;verticalAlign=bottom;endArrow=open;endSize=8;strokeColor=#ff0000;rounded=0;" edge="1" source="xI2tX_Hjlg2Yhiu6L8t_-97" parent="xI2tX_Hjlg2Yhiu6L8t_-121" target="xI2tX_Hjlg2Yhiu6L8t_-95">
          <mxGeometry relative="1" as="geometry">
            <mxPoint x="232.5" y="341.1016949152543" as="targetPoint" />
          </mxGeometry>
        </mxCell>
        <mxCell id="xI2tX_Hjlg2Yhiu6L8t_-119" value="" style="group" vertex="1" connectable="0" parent="xI2tX_Hjlg2Yhiu6L8t_-121">
          <mxGeometry y="777.7118644067798" width="465" height="832.2881355932203" as="geometry" />
        </mxCell>
        <mxCell id="xI2tX_Hjlg2Yhiu6L8t_-95" value="" style="shape=line;html=1;strokeWidth=6;strokeColor=#ff0000;" vertex="1" parent="xI2tX_Hjlg2Yhiu6L8t_-119">
          <mxGeometry x="132.5" width="200" height="13.644067796610171" as="geometry" />
        </mxCell>
        <mxCell id="xI2tX_Hjlg2Yhiu6L8t_-96" value="" style="html=1;verticalAlign=bottom;endArrow=open;endSize=8;strokeColor=#ff0000;rounded=0;entryX=0.5;entryY=0;entryDx=0;entryDy=0;" edge="1" source="xI2tX_Hjlg2Yhiu6L8t_-95" parent="xI2tX_Hjlg2Yhiu6L8t_-119" target="xI2tX_Hjlg2Yhiu6L8t_-100">
          <mxGeometry relative="1" as="geometry">
            <mxPoint x="60" y="136.4406779661017" as="targetPoint" />
          </mxGeometry>
        </mxCell>
        <mxCell id="xI2tX_Hjlg2Yhiu6L8t_-99" value="" style="html=1;verticalAlign=bottom;endArrow=open;endSize=8;strokeColor=#ff0000;rounded=0;entryX=0.5;entryY=0;entryDx=0;entryDy=0;" edge="1" parent="xI2tX_Hjlg2Yhiu6L8t_-119" source="xI2tX_Hjlg2Yhiu6L8t_-95" target="xI2tX_Hjlg2Yhiu6L8t_-102">
          <mxGeometry relative="1" as="geometry">
            <mxPoint x="360" y="136.4406779661017" as="targetPoint" />
            <mxPoint x="260" y="68.22033898305085" as="sourcePoint" />
          </mxGeometry>
        </mxCell>
        <mxCell id="xI2tX_Hjlg2Yhiu6L8t_-100" value="User selected to list routine by category (1)" style="rounded=1;whiteSpace=wrap;html=1;arcSize=40;fontColor=#000000;fillColor=#ffffc0;strokeColor=#ff0000;" vertex="1" parent="xI2tX_Hjlg2Yhiu6L8t_-119">
          <mxGeometry y="150.08474576271186" width="120" height="54.576271186440685" as="geometry" />
        </mxCell>
        <mxCell id="xI2tX_Hjlg2Yhiu6L8t_-101" value="" style="edgeStyle=orthogonalEdgeStyle;html=1;verticalAlign=bottom;endArrow=open;endSize=8;strokeColor=#ff0000;rounded=0;entryX=0.5;entryY=0;entryDx=0;entryDy=0;" edge="1" source="xI2tX_Hjlg2Yhiu6L8t_-100" parent="xI2tX_Hjlg2Yhiu6L8t_-119" target="xI2tX_Hjlg2Yhiu6L8t_-104">
          <mxGeometry relative="1" as="geometry">
            <mxPoint x="230" y="204.66101694915255" as="targetPoint" />
          </mxGeometry>
        </mxCell>
        <mxCell id="xI2tX_Hjlg2Yhiu6L8t_-102" value="User selected to list routine by periodicity (2)" style="rounded=1;whiteSpace=wrap;html=1;arcSize=40;fontColor=#000000;fillColor=#ffffc0;strokeColor=#ff0000;" vertex="1" parent="xI2tX_Hjlg2Yhiu6L8t_-119">
          <mxGeometry x="335" y="150.08474576271186" width="130" height="54.576271186440685" as="geometry" />
        </mxCell>
        <mxCell id="xI2tX_Hjlg2Yhiu6L8t_-103" value="" style="edgeStyle=orthogonalEdgeStyle;html=1;verticalAlign=bottom;endArrow=open;endSize=8;strokeColor=#ff0000;rounded=0;entryX=0.5;entryY=0;entryDx=0;entryDy=0;" edge="1" source="xI2tX_Hjlg2Yhiu6L8t_-102" parent="xI2tX_Hjlg2Yhiu6L8t_-119" target="xI2tX_Hjlg2Yhiu6L8t_-113">
          <mxGeometry relative="1" as="geometry">
            <mxPoint x="400" y="286.52542372881356" as="targetPoint" />
          </mxGeometry>
        </mxCell>
        <mxCell id="xI2tX_Hjlg2Yhiu6L8t_-104" value="UI send message to Category service" style="rounded=1;whiteSpace=wrap;html=1;arcSize=40;fontColor=#000000;fillColor=#ffffc0;strokeColor=#ff0000;" vertex="1" parent="xI2tX_Hjlg2Yhiu6L8t_-119">
          <mxGeometry y="286.52542372881356" width="120" height="54.576271186440685" as="geometry" />
        </mxCell>
        <mxCell id="xI2tX_Hjlg2Yhiu6L8t_-105" value="" style="edgeStyle=orthogonalEdgeStyle;html=1;verticalAlign=bottom;endArrow=open;endSize=8;strokeColor=#ff0000;rounded=0;entryX=0.5;entryY=0;entryDx=0;entryDy=0;" edge="1" source="xI2tX_Hjlg2Yhiu6L8t_-104" parent="xI2tX_Hjlg2Yhiu6L8t_-119" target="xI2tX_Hjlg2Yhiu6L8t_-106">
          <mxGeometry relative="1" as="geometry">
            <mxPoint x="60" y="422.96610169491527" as="targetPoint" />
          </mxGeometry>
        </mxCell>
        <mxCell id="xI2tX_Hjlg2Yhiu6L8t_-106" value="Category service get the routine by category and return it to UI" style="rounded=1;whiteSpace=wrap;html=1;arcSize=40;fontColor=#000000;fillColor=#ffffc0;strokeColor=#ff0000;" vertex="1" parent="xI2tX_Hjlg2Yhiu6L8t_-119">
          <mxGeometry y="422.96610169491527" width="120" height="109.15254237288137" as="geometry" />
        </mxCell>
        <mxCell id="xI2tX_Hjlg2Yhiu6L8t_-107" value="" style="edgeStyle=orthogonalEdgeStyle;html=1;verticalAlign=bottom;endArrow=open;endSize=8;strokeColor=#ff0000;rounded=0;entryX=0.5;entryY=0;entryDx=0;entryDy=0;" edge="1" source="xI2tX_Hjlg2Yhiu6L8t_-106" parent="xI2tX_Hjlg2Yhiu6L8t_-119" target="xI2tX_Hjlg2Yhiu6L8t_-108">
          <mxGeometry relative="1" as="geometry">
            <mxPoint x="60" y="613.9830508474577" as="targetPoint" />
          </mxGeometry>
        </mxCell>
        <mxCell id="xI2tX_Hjlg2Yhiu6L8t_-108" value="UI displayed routine with only that category to user" style="rounded=1;whiteSpace=wrap;html=1;arcSize=40;fontColor=#000000;fillColor=#ffffc0;strokeColor=#ff0000;" vertex="1" parent="xI2tX_Hjlg2Yhiu6L8t_-119">
          <mxGeometry y="613.9830508474577" width="120" height="81.86440677966102" as="geometry" />
        </mxCell>
        <mxCell id="xI2tX_Hjlg2Yhiu6L8t_-109" value="" style="html=1;verticalAlign=bottom;endArrow=open;endSize=8;strokeColor=#ff0000;rounded=0;" edge="1" source="xI2tX_Hjlg2Yhiu6L8t_-108" parent="xI2tX_Hjlg2Yhiu6L8t_-119" target="xI2tX_Hjlg2Yhiu6L8t_-110">
          <mxGeometry relative="1" as="geometry">
            <mxPoint x="60" y="777.7118644067798" as="targetPoint" />
          </mxGeometry>
        </mxCell>
        <mxCell id="xI2tX_Hjlg2Yhiu6L8t_-110" value="" style="shape=line;html=1;strokeWidth=6;strokeColor=#ff0000;" vertex="1" parent="xI2tX_Hjlg2Yhiu6L8t_-119">
          <mxGeometry x="130" y="818.6440677966102" width="200" height="13.644067796610171" as="geometry" />
        </mxCell>
        <mxCell id="xI2tX_Hjlg2Yhiu6L8t_-113" value="UI send message to Periodicity service" style="rounded=1;whiteSpace=wrap;html=1;arcSize=40;fontColor=#000000;fillColor=#ffffc0;strokeColor=#ff0000;" vertex="1" parent="xI2tX_Hjlg2Yhiu6L8t_-119">
          <mxGeometry x="340" y="286.52542372881356" width="120" height="54.576271186440685" as="geometry" />
        </mxCell>
        <mxCell id="xI2tX_Hjlg2Yhiu6L8t_-114" value="" style="edgeStyle=orthogonalEdgeStyle;html=1;verticalAlign=bottom;endArrow=open;endSize=8;strokeColor=#ff0000;rounded=0;entryX=0.5;entryY=0;entryDx=0;entryDy=0;" edge="1" source="xI2tX_Hjlg2Yhiu6L8t_-113" parent="xI2tX_Hjlg2Yhiu6L8t_-119" target="xI2tX_Hjlg2Yhiu6L8t_-115">
          <mxGeometry relative="1" as="geometry">
            <mxPoint x="400" y="422.96610169491527" as="targetPoint" />
          </mxGeometry>
        </mxCell>
        <mxCell id="xI2tX_Hjlg2Yhiu6L8t_-115" value="Periodicity service get the routine by periodicity and return it to UI" style="rounded=1;whiteSpace=wrap;html=1;arcSize=40;fontColor=#000000;fillColor=#ffffc0;strokeColor=#ff0000;" vertex="1" parent="xI2tX_Hjlg2Yhiu6L8t_-119">
          <mxGeometry x="335" y="422.96610169491527" width="130" height="109.15254237288137" as="geometry" />
        </mxCell>
        <mxCell id="xI2tX_Hjlg2Yhiu6L8t_-116" value="" style="edgeStyle=orthogonalEdgeStyle;html=1;verticalAlign=bottom;endArrow=open;endSize=8;strokeColor=#ff0000;rounded=0;entryX=0.5;entryY=0;entryDx=0;entryDy=0;" edge="1" source="xI2tX_Hjlg2Yhiu6L8t_-115" parent="xI2tX_Hjlg2Yhiu6L8t_-119" target="xI2tX_Hjlg2Yhiu6L8t_-117">
          <mxGeometry relative="1" as="geometry">
            <mxPoint x="400" y="613.9830508474577" as="targetPoint" />
          </mxGeometry>
        </mxCell>
        <mxCell id="xI2tX_Hjlg2Yhiu6L8t_-117" value="UI displayed routine with only that periodicity to user" style="rounded=1;whiteSpace=wrap;html=1;arcSize=40;fontColor=#000000;fillColor=#ffffc0;strokeColor=#ff0000;" vertex="1" parent="xI2tX_Hjlg2Yhiu6L8t_-119">
          <mxGeometry x="340" y="613.9830508474577" width="120" height="81.86440677966102" as="geometry" />
        </mxCell>
        <mxCell id="xI2tX_Hjlg2Yhiu6L8t_-118" value="" style="html=1;verticalAlign=bottom;endArrow=open;endSize=8;strokeColor=#ff0000;rounded=0;" edge="1" source="xI2tX_Hjlg2Yhiu6L8t_-117" parent="xI2tX_Hjlg2Yhiu6L8t_-119" target="xI2tX_Hjlg2Yhiu6L8t_-110">
          <mxGeometry relative="1" as="geometry">
            <mxPoint x="563" y="818.6440677966102" as="targetPoint" />
          </mxGeometry>
        </mxCell>
        <mxCell id="xI2tX_Hjlg2Yhiu6L8t_-351" value="" style="group" vertex="1" connectable="0" parent="xI2tX_Hjlg2Yhiu6L8t_-356">
          <mxGeometry x="2290" y="500" width="120" height="1790" as="geometry" />
        </mxCell>
        <mxCell id="xI2tX_Hjlg2Yhiu6L8t_-162" value="" style="group" vertex="1" connectable="0" parent="xI2tX_Hjlg2Yhiu6L8t_-351">
          <mxGeometry width="120" height="1790" as="geometry" />
        </mxCell>
        <mxCell id="xI2tX_Hjlg2Yhiu6L8t_-152" value="User selected to search routine by name (4)" style="rounded=1;whiteSpace=wrap;html=1;arcSize=40;fontColor=#000000;fillColor=#ffffc0;strokeColor=#ff0000;" vertex="1" parent="xI2tX_Hjlg2Yhiu6L8t_-162">
          <mxGeometry width="120" height="94.21052631578948" as="geometry" />
        </mxCell>
        <mxCell id="xI2tX_Hjlg2Yhiu6L8t_-153" value="" style="edgeStyle=orthogonalEdgeStyle;html=1;verticalAlign=bottom;endArrow=open;endSize=8;strokeColor=#ff0000;rounded=0;entryX=0.5;entryY=0;entryDx=0;entryDy=0;" edge="1" source="xI2tX_Hjlg2Yhiu6L8t_-152" parent="xI2tX_Hjlg2Yhiu6L8t_-162" target="xI2tX_Hjlg2Yhiu6L8t_-154">
          <mxGeometry relative="1" as="geometry">
            <mxPoint x="60.5" y="219.82456140350877" as="targetPoint" />
          </mxGeometry>
        </mxCell>
        <mxCell id="xI2tX_Hjlg2Yhiu6L8t_-154" value="User enter the name" style="rounded=1;whiteSpace=wrap;html=1;arcSize=40;fontColor=#000000;fillColor=#ffffc0;strokeColor=#ff0000;" vertex="1" parent="xI2tX_Hjlg2Yhiu6L8t_-162">
          <mxGeometry y="612.3684210526316" width="120" height="94.21052631578948" as="geometry" />
        </mxCell>
        <mxCell id="xI2tX_Hjlg2Yhiu6L8t_-155" value="" style="edgeStyle=orthogonalEdgeStyle;html=1;verticalAlign=bottom;endArrow=open;endSize=8;strokeColor=#ff0000;rounded=0;entryX=0.5;entryY=0;entryDx=0;entryDy=0;" edge="1" source="xI2tX_Hjlg2Yhiu6L8t_-154" parent="xI2tX_Hjlg2Yhiu6L8t_-162" target="xI2tX_Hjlg2Yhiu6L8t_-156">
          <mxGeometry relative="1" as="geometry">
            <mxPoint x="60.5" y="439.64912280701753" as="targetPoint" />
          </mxGeometry>
        </mxCell>
        <mxCell id="xI2tX_Hjlg2Yhiu6L8t_-156" value="UI send the service with the name" style="rounded=1;whiteSpace=wrap;html=1;arcSize=40;fontColor=#000000;fillColor=#ffffc0;strokeColor=#ff0000;" vertex="1" parent="xI2tX_Hjlg2Yhiu6L8t_-162">
          <mxGeometry y="1052.017543859649" width="120" height="94.21052631578948" as="geometry" />
        </mxCell>
        <mxCell id="xI2tX_Hjlg2Yhiu6L8t_-157" value="" style="edgeStyle=orthogonalEdgeStyle;html=1;verticalAlign=bottom;endArrow=open;endSize=8;strokeColor=#ff0000;rounded=0;entryX=0.5;entryY=0;entryDx=0;entryDy=0;" edge="1" source="xI2tX_Hjlg2Yhiu6L8t_-156" parent="xI2tX_Hjlg2Yhiu6L8t_-162" target="xI2tX_Hjlg2Yhiu6L8t_-158">
          <mxGeometry relative="1" as="geometry">
            <mxPoint x="60.5" y="659.4736842105262" as="targetPoint" />
          </mxGeometry>
        </mxCell>
        <mxCell id="xI2tX_Hjlg2Yhiu6L8t_-158" value="Service get the routine and return it to UI" style="rounded=1;whiteSpace=wrap;html=1;arcSize=40;fontColor=#000000;fillColor=#ffffc0;strokeColor=#ff0000;" vertex="1" parent="xI2tX_Hjlg2Yhiu6L8t_-162">
          <mxGeometry y="1366.0526315789473" width="120" height="109.91228070175438" as="geometry" />
        </mxCell>
        <mxCell id="xI2tX_Hjlg2Yhiu6L8t_-159" value="" style="edgeStyle=orthogonalEdgeStyle;html=1;verticalAlign=bottom;endArrow=open;endSize=8;strokeColor=#ff0000;rounded=0;entryX=0.5;entryY=0;entryDx=0;entryDy=0;" edge="1" source="xI2tX_Hjlg2Yhiu6L8t_-158" parent="xI2tX_Hjlg2Yhiu6L8t_-162" target="xI2tX_Hjlg2Yhiu6L8t_-160">
          <mxGeometry relative="1" as="geometry">
            <mxPoint x="60" y="863.5964912280701" as="targetPoint" />
          </mxGeometry>
        </mxCell>
        <mxCell id="xI2tX_Hjlg2Yhiu6L8t_-160" value="Console display the routine to user" style="rounded=1;whiteSpace=wrap;html=1;arcSize=40;fontColor=#000000;fillColor=#ffffc0;strokeColor=#ff0000;" vertex="1" parent="xI2tX_Hjlg2Yhiu6L8t_-162">
          <mxGeometry y="1727.1929824561403" width="120" height="62.80701754385966" as="geometry" />
        </mxCell>
        <mxCell id="xI2tX_Hjlg2Yhiu6L8t_-353" value="" style="group" vertex="1" connectable="0" parent="xI2tX_Hjlg2Yhiu6L8t_-356">
          <mxGeometry x="4245" y="510" width="120" height="2000" as="geometry" />
        </mxCell>
        <mxCell id="xI2tX_Hjlg2Yhiu6L8t_-280" value="" style="group" vertex="1" connectable="0" parent="xI2tX_Hjlg2Yhiu6L8t_-353">
          <mxGeometry width="120" height="2000" as="geometry" />
        </mxCell>
        <mxCell id="xI2tX_Hjlg2Yhiu6L8t_-267" value="User selected to delete routine (6)" style="rounded=1;whiteSpace=wrap;html=1;arcSize=40;fontColor=#000000;fillColor=#ffffc0;strokeColor=#ff0000;" vertex="1" parent="xI2tX_Hjlg2Yhiu6L8t_-280">
          <mxGeometry width="120" height="40" as="geometry" />
        </mxCell>
        <mxCell id="xI2tX_Hjlg2Yhiu6L8t_-268" value="" style="edgeStyle=orthogonalEdgeStyle;html=1;verticalAlign=bottom;endArrow=open;endSize=8;strokeColor=#ff0000;rounded=0;entryX=0.5;entryY=0;entryDx=0;entryDy=0;" edge="1" source="xI2tX_Hjlg2Yhiu6L8t_-267" parent="xI2tX_Hjlg2Yhiu6L8t_-280" target="xI2tX_Hjlg2Yhiu6L8t_-270">
          <mxGeometry relative="1" as="geometry">
            <mxPoint x="60" y="100" as="targetPoint" />
          </mxGeometry>
        </mxCell>
        <mxCell id="xI2tX_Hjlg2Yhiu6L8t_-270" value="User enter the name" style="rounded=1;whiteSpace=wrap;html=1;arcSize=40;fontColor=#000000;fillColor=#ffffc0;strokeColor=#ff0000;" vertex="1" parent="xI2tX_Hjlg2Yhiu6L8t_-280">
          <mxGeometry y="340" width="120" height="40" as="geometry" />
        </mxCell>
        <mxCell id="xI2tX_Hjlg2Yhiu6L8t_-271" value="" style="edgeStyle=orthogonalEdgeStyle;html=1;verticalAlign=bottom;endArrow=open;endSize=8;strokeColor=#ff0000;rounded=0;entryX=0.5;entryY=0;entryDx=0;entryDy=0;" edge="1" source="xI2tX_Hjlg2Yhiu6L8t_-270" parent="xI2tX_Hjlg2Yhiu6L8t_-280" target="xI2tX_Hjlg2Yhiu6L8t_-272">
          <mxGeometry relative="1" as="geometry">
            <mxPoint x="60" y="440" as="targetPoint" />
          </mxGeometry>
        </mxCell>
        <mxCell id="xI2tX_Hjlg2Yhiu6L8t_-272" value="UI send the service with info" style="rounded=1;whiteSpace=wrap;html=1;arcSize=40;fontColor=#000000;fillColor=#ffffc0;strokeColor=#ff0000;" vertex="1" parent="xI2tX_Hjlg2Yhiu6L8t_-280">
          <mxGeometry y="700" width="120" height="40" as="geometry" />
        </mxCell>
        <mxCell id="xI2tX_Hjlg2Yhiu6L8t_-273" value="" style="edgeStyle=orthogonalEdgeStyle;html=1;verticalAlign=bottom;endArrow=open;endSize=8;strokeColor=#ff0000;rounded=0;entryX=0.5;entryY=0;entryDx=0;entryDy=0;" edge="1" source="xI2tX_Hjlg2Yhiu6L8t_-272" parent="xI2tX_Hjlg2Yhiu6L8t_-280" target="xI2tX_Hjlg2Yhiu6L8t_-274">
          <mxGeometry relative="1" as="geometry">
            <mxPoint x="60" y="800" as="targetPoint" />
          </mxGeometry>
        </mxCell>
        <mxCell id="xI2tX_Hjlg2Yhiu6L8t_-274" value="Service search the routine by name" style="rounded=1;whiteSpace=wrap;html=1;arcSize=40;fontColor=#000000;fillColor=#ffffc0;strokeColor=#ff0000;" vertex="1" parent="xI2tX_Hjlg2Yhiu6L8t_-280">
          <mxGeometry y="1300" width="120" height="40" as="geometry" />
        </mxCell>
        <mxCell id="xI2tX_Hjlg2Yhiu6L8t_-275" value="" style="edgeStyle=orthogonalEdgeStyle;html=1;verticalAlign=bottom;endArrow=open;endSize=8;strokeColor=#ff0000;rounded=0;entryX=0.5;entryY=0;entryDx=0;entryDy=0;" edge="1" source="xI2tX_Hjlg2Yhiu6L8t_-274" parent="xI2tX_Hjlg2Yhiu6L8t_-280" target="xI2tX_Hjlg2Yhiu6L8t_-276">
          <mxGeometry relative="1" as="geometry">
            <mxPoint x="50" y="1400" as="targetPoint" />
          </mxGeometry>
        </mxCell>
        <mxCell id="xI2tX_Hjlg2Yhiu6L8t_-276" value="Service delete the routine from the list" style="rounded=1;whiteSpace=wrap;html=1;arcSize=40;fontColor=#000000;fillColor=#ffffc0;strokeColor=#ff0000;" vertex="1" parent="xI2tX_Hjlg2Yhiu6L8t_-280">
          <mxGeometry y="1690" width="120" height="40" as="geometry" />
        </mxCell>
        <mxCell id="xI2tX_Hjlg2Yhiu6L8t_-277" value="" style="edgeStyle=orthogonalEdgeStyle;html=1;verticalAlign=bottom;endArrow=open;endSize=8;strokeColor=#ff0000;rounded=0;entryX=0.5;entryY=0;entryDx=0;entryDy=0;" edge="1" source="xI2tX_Hjlg2Yhiu6L8t_-276" parent="xI2tX_Hjlg2Yhiu6L8t_-280" target="xI2tX_Hjlg2Yhiu6L8t_-278">
          <mxGeometry relative="1" as="geometry">
            <mxPoint x="60" y="1790" as="targetPoint" />
          </mxGeometry>
        </mxCell>
        <mxCell id="xI2tX_Hjlg2Yhiu6L8t_-278" value="Console display to user that routine have deleted" style="rounded=1;whiteSpace=wrap;html=1;arcSize=40;fontColor=#000000;fillColor=#ffffc0;strokeColor=#ff0000;" vertex="1" parent="xI2tX_Hjlg2Yhiu6L8t_-280">
          <mxGeometry y="1930" width="120" height="70" as="geometry" />
        </mxCell>
        <mxCell id="xI2tX_Hjlg2Yhiu6L8t_-355" value="" style="group" vertex="1" connectable="0" parent="xI2tX_Hjlg2Yhiu6L8t_-356">
          <mxGeometry x="4520" y="530" width="1059.3" height="1695" as="geometry" />
        </mxCell>
        <mxCell id="xI2tX_Hjlg2Yhiu6L8t_-339" value="" style="group" vertex="1" connectable="0" parent="xI2tX_Hjlg2Yhiu6L8t_-355">
          <mxGeometry width="1059.3" height="1695" as="geometry" />
        </mxCell>
        <mxCell id="xI2tX_Hjlg2Yhiu6L8t_-282" value="User selected to file management option (7)" style="rounded=1;whiteSpace=wrap;html=1;arcSize=40;fontColor=#000000;fillColor=#ffffc0;strokeColor=#ff0000;" vertex="1" parent="xI2tX_Hjlg2Yhiu6L8t_-339">
          <mxGeometry x="260" width="120" height="40" as="geometry" />
        </mxCell>
        <mxCell id="xI2tX_Hjlg2Yhiu6L8t_-283" value="" style="edgeStyle=orthogonalEdgeStyle;html=1;verticalAlign=bottom;endArrow=open;endSize=8;strokeColor=#ff0000;rounded=0;" edge="1" source="xI2tX_Hjlg2Yhiu6L8t_-282" parent="xI2tX_Hjlg2Yhiu6L8t_-339" target="xI2tX_Hjlg2Yhiu6L8t_-286">
          <mxGeometry relative="1" as="geometry">
            <mxPoint x="321" y="171" as="targetPoint" />
          </mxGeometry>
        </mxCell>
        <mxCell id="xI2tX_Hjlg2Yhiu6L8t_-284" value="User selected to load the file (1)" style="rounded=1;whiteSpace=wrap;html=1;arcSize=40;fontColor=#000000;fillColor=#ffffc0;strokeColor=#ff0000;" vertex="1" parent="xI2tX_Hjlg2Yhiu6L8t_-339">
          <mxGeometry y="330" width="120" height="40" as="geometry" />
        </mxCell>
        <mxCell id="xI2tX_Hjlg2Yhiu6L8t_-285" value="" style="edgeStyle=orthogonalEdgeStyle;html=1;verticalAlign=bottom;endArrow=open;endSize=8;strokeColor=#ff0000;rounded=0;entryX=0.5;entryY=0;entryDx=0;entryDy=0;" edge="1" source="xI2tX_Hjlg2Yhiu6L8t_-284" parent="xI2tX_Hjlg2Yhiu6L8t_-339" target="xI2tX_Hjlg2Yhiu6L8t_-289">
          <mxGeometry relative="1" as="geometry">
            <mxPoint x="60" y="430" as="targetPoint" />
          </mxGeometry>
        </mxCell>
        <mxCell id="xI2tX_Hjlg2Yhiu6L8t_-286" value="" style="shape=line;html=1;strokeWidth=6;strokeColor=#ff0000;" vertex="1" parent="xI2tX_Hjlg2Yhiu6L8t_-339">
          <mxGeometry x="220" y="170" width="200" height="10" as="geometry" />
        </mxCell>
        <mxCell id="xI2tX_Hjlg2Yhiu6L8t_-287" value="" style="html=1;verticalAlign=bottom;endArrow=open;endSize=8;strokeColor=#ff0000;rounded=0;entryX=0.5;entryY=0;entryDx=0;entryDy=0;" edge="1" source="xI2tX_Hjlg2Yhiu6L8t_-286" parent="xI2tX_Hjlg2Yhiu6L8t_-339" target="xI2tX_Hjlg2Yhiu6L8t_-284">
          <mxGeometry relative="1" as="geometry">
            <mxPoint x="320" y="250" as="targetPoint" />
          </mxGeometry>
        </mxCell>
        <mxCell id="xI2tX_Hjlg2Yhiu6L8t_-288" value="" style="html=1;verticalAlign=bottom;endArrow=open;endSize=8;strokeColor=#ff0000;rounded=0;entryX=0.5;entryY=0;entryDx=0;entryDy=0;" edge="1" parent="xI2tX_Hjlg2Yhiu6L8t_-339" source="xI2tX_Hjlg2Yhiu6L8t_-286" target="xI2tX_Hjlg2Yhiu6L8t_-305">
          <mxGeometry relative="1" as="geometry">
            <mxPoint x="470" y="320" as="targetPoint" />
            <mxPoint x="614" y="200" as="sourcePoint" />
          </mxGeometry>
        </mxCell>
        <mxCell id="xI2tX_Hjlg2Yhiu6L8t_-289" value="User enter the name" style="rounded=1;whiteSpace=wrap;html=1;arcSize=40;fontColor=#000000;fillColor=#ffffc0;strokeColor=#ff0000;" vertex="1" parent="xI2tX_Hjlg2Yhiu6L8t_-339">
          <mxGeometry y="430" width="120" height="40" as="geometry" />
        </mxCell>
        <mxCell id="xI2tX_Hjlg2Yhiu6L8t_-290" value="" style="edgeStyle=orthogonalEdgeStyle;html=1;verticalAlign=bottom;endArrow=open;endSize=8;strokeColor=#ff0000;rounded=0;entryX=0.5;entryY=0;entryDx=0;entryDy=0;" edge="1" source="xI2tX_Hjlg2Yhiu6L8t_-289" parent="xI2tX_Hjlg2Yhiu6L8t_-339" target="xI2tX_Hjlg2Yhiu6L8t_-291">
          <mxGeometry relative="1" as="geometry">
            <mxPoint x="60" y="530" as="targetPoint" />
          </mxGeometry>
        </mxCell>
        <mxCell id="xI2tX_Hjlg2Yhiu6L8t_-291" value="UI send to file service with the name" style="rounded=1;whiteSpace=wrap;html=1;arcSize=40;fontColor=#000000;fillColor=#ffffc0;strokeColor=#ff0000;" vertex="1" parent="xI2tX_Hjlg2Yhiu6L8t_-339">
          <mxGeometry y="535" width="120" height="40" as="geometry" />
        </mxCell>
        <mxCell id="xI2tX_Hjlg2Yhiu6L8t_-292" value="" style="edgeStyle=orthogonalEdgeStyle;html=1;verticalAlign=bottom;endArrow=open;endSize=8;strokeColor=#ff0000;rounded=0;entryX=0.5;entryY=0;entryDx=0;entryDy=0;" edge="1" source="xI2tX_Hjlg2Yhiu6L8t_-291" parent="xI2tX_Hjlg2Yhiu6L8t_-339" target="xI2tX_Hjlg2Yhiu6L8t_-293">
          <mxGeometry relative="1" as="geometry">
            <mxPoint x="60" y="635" as="targetPoint" />
          </mxGeometry>
        </mxCell>
        <mxCell id="xI2tX_Hjlg2Yhiu6L8t_-293" value="Service search the file with the name" style="rounded=1;whiteSpace=wrap;html=1;arcSize=40;fontColor=#000000;fillColor=#ffffc0;strokeColor=#ff0000;" vertex="1" parent="xI2tX_Hjlg2Yhiu6L8t_-339">
          <mxGeometry y="640" width="120" height="40" as="geometry" />
        </mxCell>
        <mxCell id="xI2tX_Hjlg2Yhiu6L8t_-294" value="" style="edgeStyle=orthogonalEdgeStyle;html=1;verticalAlign=bottom;endArrow=open;endSize=8;strokeColor=#ff0000;rounded=0;entryX=0.5;entryY=0;entryDx=0;entryDy=0;" edge="1" source="xI2tX_Hjlg2Yhiu6L8t_-293" parent="xI2tX_Hjlg2Yhiu6L8t_-339" target="xI2tX_Hjlg2Yhiu6L8t_-295">
          <mxGeometry relative="1" as="geometry">
            <mxPoint x="60" y="740" as="targetPoint" />
          </mxGeometry>
        </mxCell>
        <mxCell id="xI2tX_Hjlg2Yhiu6L8t_-295" value="Service read the file and add values" style="rounded=1;whiteSpace=wrap;html=1;arcSize=40;fontColor=#000000;fillColor=#ffffc0;strokeColor=#ff0000;" vertex="1" parent="xI2tX_Hjlg2Yhiu6L8t_-339">
          <mxGeometry y="746" width="120" height="40" as="geometry" />
        </mxCell>
        <mxCell id="xI2tX_Hjlg2Yhiu6L8t_-296" value="" style="edgeStyle=orthogonalEdgeStyle;html=1;verticalAlign=bottom;endArrow=open;endSize=8;strokeColor=#ff0000;rounded=0;entryX=0.5;entryY=0;entryDx=0;entryDy=0;" edge="1" source="xI2tX_Hjlg2Yhiu6L8t_-295" parent="xI2tX_Hjlg2Yhiu6L8t_-339" target="xI2tX_Hjlg2Yhiu6L8t_-297">
          <mxGeometry relative="1" as="geometry">
            <mxPoint x="60" y="846" as="targetPoint" />
          </mxGeometry>
        </mxCell>
        <mxCell id="xI2tX_Hjlg2Yhiu6L8t_-297" value="Service add value to routine and add it to the list" style="rounded=1;whiteSpace=wrap;html=1;arcSize=40;fontColor=#000000;fillColor=#ffffc0;strokeColor=#ff0000;" vertex="1" parent="xI2tX_Hjlg2Yhiu6L8t_-339">
          <mxGeometry y="850" width="120" height="55" as="geometry" />
        </mxCell>
        <mxCell id="xI2tX_Hjlg2Yhiu6L8t_-298" value="" style="html=1;verticalAlign=bottom;endArrow=open;endSize=8;strokeColor=#ff0000;rounded=0;" edge="1" source="xI2tX_Hjlg2Yhiu6L8t_-297" parent="xI2tX_Hjlg2Yhiu6L8t_-339" target="xI2tX_Hjlg2Yhiu6L8t_-303">
          <mxGeometry relative="1" as="geometry">
            <mxPoint x="60" y="965" as="targetPoint" />
          </mxGeometry>
        </mxCell>
        <mxCell id="xI2tX_Hjlg2Yhiu6L8t_-303" value="" style="shape=line;html=1;strokeWidth=6;strokeColor=#ff0000;" vertex="1" parent="xI2tX_Hjlg2Yhiu6L8t_-339">
          <mxGeometry x="160" y="1450" width="200" height="10" as="geometry" />
        </mxCell>
        <mxCell id="xI2tX_Hjlg2Yhiu6L8t_-304" value="" style="edgeStyle=orthogonalEdgeStyle;html=1;verticalAlign=bottom;endArrow=open;endSize=8;strokeColor=#ff0000;rounded=0;entryX=0.5;entryY=0;entryDx=0;entryDy=0;" edge="1" source="xI2tX_Hjlg2Yhiu6L8t_-303" parent="xI2tX_Hjlg2Yhiu6L8t_-339" target="xI2tX_Hjlg2Yhiu6L8t_-337">
          <mxGeometry relative="1" as="geometry">
            <mxPoint x="260" y="1530" as="targetPoint" />
          </mxGeometry>
        </mxCell>
        <mxCell id="xI2tX_Hjlg2Yhiu6L8t_-305" value="User selected to save to the file" style="rounded=1;whiteSpace=wrap;html=1;arcSize=40;fontColor=#000000;fillColor=#ffffc0;strokeColor=#ff0000;" vertex="1" parent="xI2tX_Hjlg2Yhiu6L8t_-339">
          <mxGeometry x="400" y="330" width="120" height="40" as="geometry" />
        </mxCell>
        <mxCell id="xI2tX_Hjlg2Yhiu6L8t_-306" value="" style="edgeStyle=orthogonalEdgeStyle;html=1;verticalAlign=bottom;endArrow=open;endSize=8;strokeColor=#ff0000;rounded=0;entryX=0.5;entryY=0;entryDx=0;entryDy=0;" edge="1" source="xI2tX_Hjlg2Yhiu6L8t_-305" parent="xI2tX_Hjlg2Yhiu6L8t_-339" target="xI2tX_Hjlg2Yhiu6L8t_-307">
          <mxGeometry relative="1" as="geometry">
            <mxPoint x="460" y="430" as="targetPoint" />
          </mxGeometry>
        </mxCell>
        <mxCell id="xI2tX_Hjlg2Yhiu6L8t_-307" value="User enter the name" style="rounded=1;whiteSpace=wrap;html=1;arcSize=40;fontColor=#000000;fillColor=#ffffc0;strokeColor=#ff0000;" vertex="1" parent="xI2tX_Hjlg2Yhiu6L8t_-339">
          <mxGeometry x="400" y="430" width="120" height="40" as="geometry" />
        </mxCell>
        <mxCell id="xI2tX_Hjlg2Yhiu6L8t_-308" value="" style="html=1;verticalAlign=bottom;endArrow=open;endSize=8;strokeColor=#ff0000;rounded=0;" edge="1" source="xI2tX_Hjlg2Yhiu6L8t_-307" parent="xI2tX_Hjlg2Yhiu6L8t_-339" target="xI2tX_Hjlg2Yhiu6L8t_-318">
          <mxGeometry relative="1" as="geometry">
            <mxPoint x="560" y="480" as="targetPoint" />
          </mxGeometry>
        </mxCell>
        <mxCell id="xI2tX_Hjlg2Yhiu6L8t_-309" value="Console display option to overwrite if exists" style="rounded=1;whiteSpace=wrap;html=1;arcSize=40;fontColor=#000000;fillColor=#ffffc0;strokeColor=#ff0000;" vertex="1" parent="xI2tX_Hjlg2Yhiu6L8t_-339">
          <mxGeometry x="794.3" y="680" width="120" height="40" as="geometry" />
        </mxCell>
        <mxCell id="xI2tX_Hjlg2Yhiu6L8t_-310" value="" style="edgeStyle=orthogonalEdgeStyle;html=1;verticalAlign=bottom;endArrow=open;endSize=8;strokeColor=#ff0000;rounded=0;" edge="1" source="xI2tX_Hjlg2Yhiu6L8t_-309" parent="xI2tX_Hjlg2Yhiu6L8t_-339">
          <mxGeometry relative="1" as="geometry">
            <mxPoint x="854.3" y="780" as="targetPoint" />
          </mxGeometry>
        </mxCell>
        <mxCell id="xI2tX_Hjlg2Yhiu6L8t_-311" value="Overwrite?" style="rhombus;whiteSpace=wrap;html=1;fontColor=#000000;fillColor=#ffffc0;strokeColor=#ff0000;" vertex="1" parent="xI2tX_Hjlg2Yhiu6L8t_-339">
          <mxGeometry x="804.3" y="780" width="100" height="50" as="geometry" />
        </mxCell>
        <mxCell id="xI2tX_Hjlg2Yhiu6L8t_-312" value="no" style="html=1;align=left;verticalAlign=bottom;endArrow=open;endSize=8;strokeColor=#ff0000;rounded=0;entryX=0.5;entryY=0;entryDx=0;entryDy=0;" edge="1" source="xI2tX_Hjlg2Yhiu6L8t_-311" parent="xI2tX_Hjlg2Yhiu6L8t_-339" target="xI2tX_Hjlg2Yhiu6L8t_-320">
          <mxGeometry x="-0.1528" y="-13" relative="1" as="geometry">
            <mxPoint x="994.3" y="1640" as="targetPoint" />
            <mxPoint as="offset" />
          </mxGeometry>
        </mxCell>
        <mxCell id="xI2tX_Hjlg2Yhiu6L8t_-313" value="yes" style="html=1;align=left;verticalAlign=top;endArrow=open;endSize=8;strokeColor=#ff0000;rounded=0;entryX=0.5;entryY=0;entryDx=0;entryDy=0;" edge="1" source="xI2tX_Hjlg2Yhiu6L8t_-311" parent="xI2tX_Hjlg2Yhiu6L8t_-339" target="xI2tX_Hjlg2Yhiu6L8t_-314">
          <mxGeometry x="-0.0006" y="-17" relative="1" as="geometry">
            <mxPoint x="772.0799999999999" y="906.1099999999999" as="targetPoint" />
            <mxPoint x="644.3022222222216" y="829.998888888889" as="sourcePoint" />
            <mxPoint as="offset" />
          </mxGeometry>
        </mxCell>
        <mxCell id="xI2tX_Hjlg2Yhiu6L8t_-314" value="UI send to file service with name" style="rounded=1;whiteSpace=wrap;html=1;arcSize=40;fontColor=#000000;fillColor=#ffffc0;strokeColor=#ff0000;" vertex="1" parent="xI2tX_Hjlg2Yhiu6L8t_-339">
          <mxGeometry x="674.3" y="905" width="120" height="40" as="geometry" />
        </mxCell>
        <mxCell id="xI2tX_Hjlg2Yhiu6L8t_-315" value="" style="edgeStyle=orthogonalEdgeStyle;html=1;verticalAlign=bottom;endArrow=open;endSize=8;strokeColor=#ff0000;rounded=0;entryX=0.5;entryY=0;entryDx=0;entryDy=0;" edge="1" source="xI2tX_Hjlg2Yhiu6L8t_-314" parent="xI2tX_Hjlg2Yhiu6L8t_-339" target="xI2tX_Hjlg2Yhiu6L8t_-316">
          <mxGeometry relative="1" as="geometry">
            <mxPoint x="730" y="1005" as="targetPoint" />
          </mxGeometry>
        </mxCell>
        <mxCell id="xI2tX_Hjlg2Yhiu6L8t_-316" value="File Service Delete the file with that name" style="rounded=1;whiteSpace=wrap;html=1;arcSize=40;fontColor=#000000;fillColor=#ffffc0;strokeColor=#ff0000;" vertex="1" parent="xI2tX_Hjlg2Yhiu6L8t_-339">
          <mxGeometry x="674.3" y="1010" width="120" height="40" as="geometry" />
        </mxCell>
        <mxCell id="xI2tX_Hjlg2Yhiu6L8t_-317" value="" style="edgeStyle=orthogonalEdgeStyle;html=1;verticalAlign=bottom;endArrow=open;endSize=8;strokeColor=#ff0000;rounded=0;entryX=0.5;entryY=0;entryDx=0;entryDy=0;" edge="1" source="xI2tX_Hjlg2Yhiu6L8t_-316" parent="xI2tX_Hjlg2Yhiu6L8t_-339" target="xI2tX_Hjlg2Yhiu6L8t_-322">
          <mxGeometry relative="1" as="geometry">
            <mxPoint x="734.3" y="1110" as="targetPoint" />
          </mxGeometry>
        </mxCell>
        <mxCell id="xI2tX_Hjlg2Yhiu6L8t_-318" value="" style="shape=line;html=1;strokeWidth=6;strokeColor=#ff0000;" vertex="1" parent="xI2tX_Hjlg2Yhiu6L8t_-339">
          <mxGeometry x="360" y="575" width="200" height="10" as="geometry" />
        </mxCell>
        <mxCell id="xI2tX_Hjlg2Yhiu6L8t_-319" value="" style="html=1;verticalAlign=bottom;endArrow=open;endSize=8;strokeColor=#ff0000;rounded=0;entryX=0.5;entryY=0;entryDx=0;entryDy=0;" edge="1" source="xI2tX_Hjlg2Yhiu6L8t_-318" parent="xI2tX_Hjlg2Yhiu6L8t_-339" target="xI2tX_Hjlg2Yhiu6L8t_-309">
          <mxGeometry relative="1" as="geometry">
            <mxPoint x="704.3" y="655" as="targetPoint" />
            <mxPoint x="711.8" y="585" as="sourcePoint" />
          </mxGeometry>
        </mxCell>
        <mxCell id="xI2tX_Hjlg2Yhiu6L8t_-320" value="Console display user that overwriting was cancelled" style="rounded=1;whiteSpace=wrap;html=1;arcSize=40;fontColor=#000000;fillColor=#ffffc0;strokeColor=#ff0000;" vertex="1" parent="xI2tX_Hjlg2Yhiu6L8t_-339">
          <mxGeometry x="939.3" y="1640" width="120" height="55" as="geometry" />
        </mxCell>
        <mxCell id="xI2tX_Hjlg2Yhiu6L8t_-322" value="File Service create the file with that name" style="rounded=1;whiteSpace=wrap;html=1;arcSize=40;fontColor=#000000;fillColor=#ffffc0;strokeColor=#ff0000;" vertex="1" parent="xI2tX_Hjlg2Yhiu6L8t_-339">
          <mxGeometry x="666.45" y="1110" width="135.7" height="40" as="geometry" />
        </mxCell>
        <mxCell id="xI2tX_Hjlg2Yhiu6L8t_-323" value="" style="edgeStyle=orthogonalEdgeStyle;html=1;verticalAlign=bottom;endArrow=open;endSize=8;strokeColor=#ff0000;rounded=0;entryX=0.5;entryY=0;entryDx=0;entryDy=0;" edge="1" source="xI2tX_Hjlg2Yhiu6L8t_-322" parent="xI2tX_Hjlg2Yhiu6L8t_-339" target="xI2tX_Hjlg2Yhiu6L8t_-324">
          <mxGeometry relative="1" as="geometry">
            <mxPoint x="734.3" y="1210" as="targetPoint" />
          </mxGeometry>
        </mxCell>
        <mxCell id="xI2tX_Hjlg2Yhiu6L8t_-324" value="File service save values into that file" style="rounded=1;whiteSpace=wrap;html=1;arcSize=40;fontColor=#000000;fillColor=#ffffc0;strokeColor=#ff0000;" vertex="1" parent="xI2tX_Hjlg2Yhiu6L8t_-339">
          <mxGeometry x="674" y="1210" width="120" height="40" as="geometry" />
        </mxCell>
        <mxCell id="xI2tX_Hjlg2Yhiu6L8t_-325" value="" style="html=1;verticalAlign=bottom;endArrow=open;endSize=8;strokeColor=#ff0000;rounded=0;" edge="1" source="xI2tX_Hjlg2Yhiu6L8t_-324" parent="xI2tX_Hjlg2Yhiu6L8t_-339" target="xI2tX_Hjlg2Yhiu6L8t_-303">
          <mxGeometry relative="1" as="geometry">
            <mxPoint x="734" y="1310" as="targetPoint" />
          </mxGeometry>
        </mxCell>
        <mxCell id="xI2tX_Hjlg2Yhiu6L8t_-330" value="" style="html=1;verticalAlign=bottom;endArrow=open;endSize=8;strokeColor=#ff0000;rounded=0;entryX=0.5;entryY=0;entryDx=0;entryDy=0;" edge="1" parent="xI2tX_Hjlg2Yhiu6L8t_-339" source="xI2tX_Hjlg2Yhiu6L8t_-318" target="xI2tX_Hjlg2Yhiu6L8t_-331">
          <mxGeometry relative="1" as="geometry">
            <mxPoint x="380" y="680" as="targetPoint" />
            <mxPoint x="490" y="595" as="sourcePoint" />
          </mxGeometry>
        </mxCell>
        <mxCell id="xI2tX_Hjlg2Yhiu6L8t_-331" value="UI send to file service with name" style="rounded=1;whiteSpace=wrap;html=1;arcSize=40;fontColor=#000000;fillColor=#ffffc0;strokeColor=#ff0000;" vertex="1" parent="xI2tX_Hjlg2Yhiu6L8t_-339">
          <mxGeometry x="327.85" y="690" width="120" height="40" as="geometry" />
        </mxCell>
        <mxCell id="xI2tX_Hjlg2Yhiu6L8t_-332" value="File Service create the file with that name" style="rounded=1;whiteSpace=wrap;html=1;arcSize=40;fontColor=#000000;fillColor=#ffffc0;strokeColor=#ff0000;" vertex="1" parent="xI2tX_Hjlg2Yhiu6L8t_-339">
          <mxGeometry x="320.0000000000001" y="805" width="135.7" height="40" as="geometry" />
        </mxCell>
        <mxCell id="xI2tX_Hjlg2Yhiu6L8t_-333" value="" style="edgeStyle=orthogonalEdgeStyle;html=1;verticalAlign=bottom;endArrow=open;endSize=8;strokeColor=#ff0000;rounded=0;entryX=0.5;entryY=0;entryDx=0;entryDy=0;" edge="1" source="xI2tX_Hjlg2Yhiu6L8t_-331" parent="xI2tX_Hjlg2Yhiu6L8t_-339" target="xI2tX_Hjlg2Yhiu6L8t_-332">
          <mxGeometry relative="1" as="geometry">
            <mxPoint x="389.6999999999998" y="800" as="targetPoint" />
          </mxGeometry>
        </mxCell>
        <mxCell id="xI2tX_Hjlg2Yhiu6L8t_-334" value="" style="edgeStyle=orthogonalEdgeStyle;html=1;verticalAlign=bottom;endArrow=open;endSize=8;strokeColor=#ff0000;rounded=0;entryX=0.5;entryY=0;entryDx=0;entryDy=0;" edge="1" source="xI2tX_Hjlg2Yhiu6L8t_-332" target="xI2tX_Hjlg2Yhiu6L8t_-335" parent="xI2tX_Hjlg2Yhiu6L8t_-339">
          <mxGeometry relative="1" as="geometry">
            <mxPoint x="387.8499999999998" y="905" as="targetPoint" />
          </mxGeometry>
        </mxCell>
        <mxCell id="xI2tX_Hjlg2Yhiu6L8t_-335" value="File service save values into that file" style="rounded=1;whiteSpace=wrap;html=1;arcSize=40;fontColor=#000000;fillColor=#ffffc0;strokeColor=#ff0000;" vertex="1" parent="xI2tX_Hjlg2Yhiu6L8t_-339">
          <mxGeometry x="327.55000000000007" y="905" width="120" height="40" as="geometry" />
        </mxCell>
        <mxCell id="xI2tX_Hjlg2Yhiu6L8t_-336" value="" style="html=1;verticalAlign=bottom;endArrow=open;endSize=8;strokeColor=#ff0000;rounded=0;" edge="1" source="xI2tX_Hjlg2Yhiu6L8t_-335" parent="xI2tX_Hjlg2Yhiu6L8t_-339" target="xI2tX_Hjlg2Yhiu6L8t_-303">
          <mxGeometry relative="1" as="geometry">
            <mxPoint x="-5.579999999999927" y="1252.5" as="targetPoint" />
          </mxGeometry>
        </mxCell>
        <mxCell id="xI2tX_Hjlg2Yhiu6L8t_-337" value="Console display to user that it was successful" style="rounded=1;whiteSpace=wrap;html=1;arcSize=40;fontColor=#000000;fillColor=#ffffc0;strokeColor=#ff0000;" vertex="1" parent="xI2tX_Hjlg2Yhiu6L8t_-339">
          <mxGeometry x="200" y="1530" width="120" height="60" as="geometry" />
        </mxCell>
        <mxCell id="xI2tX_Hjlg2Yhiu6L8t_-80" value="" style="html=1;verticalAlign=bottom;endArrow=open;endSize=8;strokeColor=#ff0000;rounded=0;entryX=0.5;entryY=0;entryDx=0;entryDy=0;" edge="1" parent="xI2tX_Hjlg2Yhiu6L8t_-356" source="xI2tX_Hjlg2Yhiu6L8t_-10" target="xI2tX_Hjlg2Yhiu6L8t_-81">
          <mxGeometry relative="1" as="geometry">
            <mxPoint x="1980" y="437.9591836734694" as="targetPoint" />
            <mxPoint x="3195" y="437.9591836734694" as="sourcePoint" />
          </mxGeometry>
        </mxCell>
        <mxCell id="xI2tX_Hjlg2Yhiu6L8t_-88" value="" style="html=1;verticalAlign=bottom;endArrow=open;endSize=8;strokeColor=#ff0000;rounded=0;" edge="1" source="xI2tX_Hjlg2Yhiu6L8t_-87" parent="xI2tX_Hjlg2Yhiu6L8t_-356" target="xI2tX_Hjlg2Yhiu6L8t_-77">
          <mxGeometry relative="1" as="geometry">
            <mxPoint x="1970" y="2292.2448979591836" as="targetPoint" />
          </mxGeometry>
        </mxCell>
        <mxCell id="xI2tX_Hjlg2Yhiu6L8t_-94" value="" style="html=1;verticalAlign=bottom;endArrow=open;endSize=8;strokeColor=#ff0000;rounded=0;entryX=0.5;entryY=0;entryDx=0;entryDy=0;" edge="1" parent="xI2tX_Hjlg2Yhiu6L8t_-356" source="xI2tX_Hjlg2Yhiu6L8t_-10" target="xI2tX_Hjlg2Yhiu6L8t_-92">
          <mxGeometry relative="1" as="geometry">
            <mxPoint x="2262.5" y="524.5762711864406" as="targetPoint" />
            <mxPoint x="3060.5" y="197.1186440677966" as="sourcePoint" />
          </mxGeometry>
        </mxCell>
        <mxCell id="xI2tX_Hjlg2Yhiu6L8t_-111" value="" style="html=1;verticalAlign=bottom;endArrow=open;endSize=8;strokeColor=#ff0000;rounded=0;" edge="1" source="xI2tX_Hjlg2Yhiu6L8t_-110" parent="xI2tX_Hjlg2Yhiu6L8t_-356" target="xI2tX_Hjlg2Yhiu6L8t_-77">
          <mxGeometry relative="1" as="geometry">
            <mxPoint x="2352.5" y="1738.8983050847455" as="targetPoint" />
          </mxGeometry>
        </mxCell>
        <mxCell id="xI2tX_Hjlg2Yhiu6L8t_-151" value="" style="html=1;verticalAlign=bottom;endArrow=open;endSize=8;strokeColor=#ff0000;rounded=0;entryX=0.5;entryY=0;entryDx=0;entryDy=0;" edge="1" parent="xI2tX_Hjlg2Yhiu6L8t_-356" source="xI2tX_Hjlg2Yhiu6L8t_-10" target="xI2tX_Hjlg2Yhiu6L8t_-152">
          <mxGeometry relative="1" as="geometry">
            <mxPoint x="2790" y="490" as="targetPoint" />
            <mxPoint x="3704" y="163.24561403508767" as="sourcePoint" />
          </mxGeometry>
        </mxCell>
        <mxCell id="xI2tX_Hjlg2Yhiu6L8t_-161" value="" style="html=1;verticalAlign=bottom;endArrow=open;endSize=8;strokeColor=#ff0000;rounded=0;" edge="1" source="xI2tX_Hjlg2Yhiu6L8t_-160" parent="xI2tX_Hjlg2Yhiu6L8t_-356" target="xI2tX_Hjlg2Yhiu6L8t_-77">
          <mxGeometry relative="1" as="geometry">
            <mxPoint x="2790" y="2058.4210526315787" as="targetPoint" />
          </mxGeometry>
        </mxCell>
        <mxCell id="xI2tX_Hjlg2Yhiu6L8t_-269" value="" style="html=1;verticalAlign=bottom;endArrow=open;endSize=8;strokeColor=#ff0000;rounded=0;entryX=0.5;entryY=0;entryDx=0;entryDy=0;" edge="1" parent="xI2tX_Hjlg2Yhiu6L8t_-356" source="xI2tX_Hjlg2Yhiu6L8t_-10" target="xI2tX_Hjlg2Yhiu6L8t_-267">
          <mxGeometry relative="1" as="geometry">
            <mxPoint x="4440" y="610" as="targetPoint" />
            <mxPoint x="4880" y="290" as="sourcePoint" />
          </mxGeometry>
        </mxCell>
        <mxCell id="xI2tX_Hjlg2Yhiu6L8t_-279" value="" style="html=1;verticalAlign=bottom;endArrow=open;endSize=8;strokeColor=#ff0000;rounded=0;" edge="1" source="xI2tX_Hjlg2Yhiu6L8t_-278" parent="xI2tX_Hjlg2Yhiu6L8t_-356" target="xI2tX_Hjlg2Yhiu6L8t_-77">
          <mxGeometry relative="1" as="geometry">
            <mxPoint x="4305" y="2570" as="targetPoint" />
          </mxGeometry>
        </mxCell>
        <mxCell id="xI2tX_Hjlg2Yhiu6L8t_-281" value="" style="html=1;verticalAlign=bottom;endArrow=open;endSize=8;strokeColor=#ff0000;rounded=0;entryX=0.5;entryY=0;entryDx=0;entryDy=0;" edge="1" parent="xI2tX_Hjlg2Yhiu6L8t_-356" source="xI2tX_Hjlg2Yhiu6L8t_-10" target="xI2tX_Hjlg2Yhiu6L8t_-282">
          <mxGeometry relative="1" as="geometry">
            <mxPoint x="5215" y="570" as="targetPoint" />
            <mxPoint x="5274" y="250" as="sourcePoint" />
          </mxGeometry>
        </mxCell>
        <mxCell id="xI2tX_Hjlg2Yhiu6L8t_-321" value="" style="html=1;verticalAlign=bottom;endArrow=open;endSize=8;strokeColor=#ff0000;rounded=0;" edge="1" source="xI2tX_Hjlg2Yhiu6L8t_-320" parent="xI2tX_Hjlg2Yhiu6L8t_-356" target="xI2tX_Hjlg2Yhiu6L8t_-77">
          <mxGeometry relative="1" as="geometry">
            <mxPoint x="4399.996202531645" y="3180" as="targetPoint" />
          </mxGeometry>
        </mxCell>
        <mxCell id="xI2tX_Hjlg2Yhiu6L8t_-338" value="" style="html=1;verticalAlign=bottom;endArrow=open;endSize=8;strokeColor=#ff0000;rounded=0;" edge="1" source="xI2tX_Hjlg2Yhiu6L8t_-337" parent="xI2tX_Hjlg2Yhiu6L8t_-356" target="xI2tX_Hjlg2Yhiu6L8t_-77">
          <mxGeometry relative="1" as="geometry">
            <mxPoint x="4780" y="2180" as="targetPoint" />
          </mxGeometry>
        </mxCell>
        <mxCell id="xI2tX_Hjlg2Yhiu6L8t_-361" value="" style="group" vertex="1" connectable="0" parent="xI2tX_Hjlg2Yhiu6L8t_-356">
          <mxGeometry x="560" y="400" width="660" height="2194.81" as="geometry" />
        </mxCell>
        <mxCell id="xI2tX_Hjlg2Yhiu6L8t_-360" value="" style="group" vertex="1" connectable="0" parent="xI2tX_Hjlg2Yhiu6L8t_-361">
          <mxGeometry width="660" height="2194.81" as="geometry" />
        </mxCell>
        <mxCell id="xI2tX_Hjlg2Yhiu6L8t_-357" value="" style="group" vertex="1" connectable="0" parent="xI2tX_Hjlg2Yhiu6L8t_-360">
          <mxGeometry width="660" height="2194.81" as="geometry" />
        </mxCell>
        <mxCell id="xI2tX_Hjlg2Yhiu6L8t_-348" value="" style="group" vertex="1" connectable="0" parent="xI2tX_Hjlg2Yhiu6L8t_-357">
          <mxGeometry width="660" height="2040" as="geometry" />
        </mxCell>
        <mxCell id="xI2tX_Hjlg2Yhiu6L8t_-79" value="" style="group" vertex="1" connectable="0" parent="xI2tX_Hjlg2Yhiu6L8t_-348">
          <mxGeometry width="660" height="2040" as="geometry" />
        </mxCell>
        <mxCell id="xI2tX_Hjlg2Yhiu6L8t_-67" value="" style="group" vertex="1" connectable="0" parent="xI2tX_Hjlg2Yhiu6L8t_-79">
          <mxGeometry y="916.7088607594937" width="660" height="671.3924050632912" as="geometry" />
        </mxCell>
        <mxCell id="xI2tX_Hjlg2Yhiu6L8t_-65" value="&amp;lt;&amp;lt;iterative&amp;gt;&amp;gt;" style="dashed=1;rounded=1;absoluteArcSize=1;arcSize=20;html=1;verticalAlign=top;align=left;spacingTop=5;spacingLeft=10;whiteSpace=wrap;" vertex="1" parent="xI2tX_Hjlg2Yhiu6L8t_-67">
          <mxGeometry width="660" height="671.3924050632912" as="geometry" />
        </mxCell>
        <mxCell id="xI2tX_Hjlg2Yhiu6L8t_-34" value="" style="shape=line;html=1;strokeWidth=6;strokeColor=#ff0000;" vertex="1" parent="xI2tX_Hjlg2Yhiu6L8t_-67">
          <mxGeometry x="250" y="12.91139240506329" width="200" height="12.91139240506329" as="geometry" />
        </mxCell>
        <mxCell id="xI2tX_Hjlg2Yhiu6L8t_-35" value="" style="html=1;verticalAlign=bottom;endArrow=open;endSize=8;strokeColor=#ff0000;rounded=0;entryX=0.5;entryY=0;entryDx=0;entryDy=0;" edge="1" source="xI2tX_Hjlg2Yhiu6L8t_-34" parent="xI2tX_Hjlg2Yhiu6L8t_-67" target="xI2tX_Hjlg2Yhiu6L8t_-36">
          <mxGeometry relative="1" as="geometry">
            <mxPoint x="350" y="116.20253164556962" as="targetPoint" />
          </mxGeometry>
        </mxCell>
        <mxCell id="xI2tX_Hjlg2Yhiu6L8t_-36" value="User selected to add task (1)" style="rounded=1;whiteSpace=wrap;html=1;arcSize=40;fontColor=#000000;fillColor=#ffffc0;strokeColor=#ff0000;" vertex="1" parent="xI2tX_Hjlg2Yhiu6L8t_-67">
          <mxGeometry x="95" y="154.9367088607595" width="120" height="51.64556962025316" as="geometry" />
        </mxCell>
        <mxCell id="xI2tX_Hjlg2Yhiu6L8t_-37" value="" style="edgeStyle=orthogonalEdgeStyle;html=1;verticalAlign=bottom;endArrow=open;endSize=8;strokeColor=#ff0000;rounded=0;entryX=0.5;entryY=0;entryDx=0;entryDy=0;" edge="1" source="xI2tX_Hjlg2Yhiu6L8t_-36" parent="xI2tX_Hjlg2Yhiu6L8t_-67" target="xI2tX_Hjlg2Yhiu6L8t_-44">
          <mxGeometry relative="1" as="geometry">
            <mxPoint x="155" y="284.0506329113924" as="targetPoint" />
          </mxGeometry>
        </mxCell>
        <mxCell id="xI2tX_Hjlg2Yhiu6L8t_-38" value="User selected to edit task (2)" style="rounded=1;whiteSpace=wrap;html=1;arcSize=40;fontColor=#000000;fillColor=#ffffc0;strokeColor=#ff0000;" vertex="1" parent="xI2tX_Hjlg2Yhiu6L8t_-67">
          <mxGeometry x="290" y="154.9367088607595" width="120" height="51.64556962025316" as="geometry" />
        </mxCell>
        <mxCell id="xI2tX_Hjlg2Yhiu6L8t_-39" value="" style="edgeStyle=orthogonalEdgeStyle;html=1;verticalAlign=bottom;endArrow=open;endSize=8;strokeColor=#ff0000;rounded=0;entryX=0.5;entryY=0;entryDx=0;entryDy=0;" edge="1" source="xI2tX_Hjlg2Yhiu6L8t_-38" parent="xI2tX_Hjlg2Yhiu6L8t_-67" target="xI2tX_Hjlg2Yhiu6L8t_-51">
          <mxGeometry relative="1" as="geometry">
            <mxPoint x="340" y="284.0506329113924" as="targetPoint" />
          </mxGeometry>
        </mxCell>
        <mxCell id="xI2tX_Hjlg2Yhiu6L8t_-40" value="User selected to delete task (3)" style="rounded=1;whiteSpace=wrap;html=1;arcSize=40;fontColor=#000000;fillColor=#ffffc0;strokeColor=#ff0000;" vertex="1" parent="xI2tX_Hjlg2Yhiu6L8t_-67">
          <mxGeometry x="450" y="154.9367088607595" width="120" height="51.64556962025316" as="geometry" />
        </mxCell>
        <mxCell id="xI2tX_Hjlg2Yhiu6L8t_-41" value="" style="edgeStyle=orthogonalEdgeStyle;html=1;verticalAlign=bottom;endArrow=open;endSize=8;strokeColor=#ff0000;rounded=0;entryX=0.5;entryY=0;entryDx=0;entryDy=0;" edge="1" source="xI2tX_Hjlg2Yhiu6L8t_-40" parent="xI2tX_Hjlg2Yhiu6L8t_-67" target="xI2tX_Hjlg2Yhiu6L8t_-55">
          <mxGeometry relative="1" as="geometry">
            <mxPoint x="510" y="284.0506329113924" as="targetPoint" />
          </mxGeometry>
        </mxCell>
        <mxCell id="xI2tX_Hjlg2Yhiu6L8t_-42" value="" style="html=1;verticalAlign=bottom;endArrow=open;endSize=8;strokeColor=#ff0000;rounded=0;entryX=0.5;entryY=0;entryDx=0;entryDy=0;" edge="1" parent="xI2tX_Hjlg2Yhiu6L8t_-67" source="xI2tX_Hjlg2Yhiu6L8t_-34" target="xI2tX_Hjlg2Yhiu6L8t_-38">
          <mxGeometry relative="1" as="geometry">
            <mxPoint x="165" y="167.8481012658228" as="targetPoint" />
            <mxPoint x="350" y="12.91139240506329" as="sourcePoint" />
          </mxGeometry>
        </mxCell>
        <mxCell id="xI2tX_Hjlg2Yhiu6L8t_-43" value="" style="html=1;verticalAlign=bottom;endArrow=open;endSize=8;strokeColor=#ff0000;rounded=0;entryX=0.5;entryY=0;entryDx=0;entryDy=0;" edge="1" parent="xI2tX_Hjlg2Yhiu6L8t_-67" source="xI2tX_Hjlg2Yhiu6L8t_-34" target="xI2tX_Hjlg2Yhiu6L8t_-40">
          <mxGeometry relative="1" as="geometry">
            <mxPoint x="350" y="167.8481012658228" as="targetPoint" />
            <mxPoint x="360" y="38.734177215189874" as="sourcePoint" />
          </mxGeometry>
        </mxCell>
        <mxCell id="xI2tX_Hjlg2Yhiu6L8t_-44" value="User enter the task" style="rounded=1;whiteSpace=wrap;html=1;arcSize=40;fontColor=#000000;fillColor=#ffffc0;strokeColor=#ff0000;" vertex="1" parent="xI2tX_Hjlg2Yhiu6L8t_-67">
          <mxGeometry x="95" y="284.0506329113924" width="120" height="51.64556962025316" as="geometry" />
        </mxCell>
        <mxCell id="xI2tX_Hjlg2Yhiu6L8t_-45" value="" style="edgeStyle=orthogonalEdgeStyle;html=1;verticalAlign=bottom;endArrow=open;endSize=8;strokeColor=#ff0000;rounded=0;entryX=0.5;entryY=0;entryDx=0;entryDy=0;" edge="1" source="xI2tX_Hjlg2Yhiu6L8t_-44" parent="xI2tX_Hjlg2Yhiu6L8t_-67" target="xI2tX_Hjlg2Yhiu6L8t_-46">
          <mxGeometry relative="1" as="geometry">
            <mxPoint x="155" y="413.1645569620253" as="targetPoint" />
          </mxGeometry>
        </mxCell>
        <mxCell id="xI2tX_Hjlg2Yhiu6L8t_-46" value="Console displayed that task have added" style="rounded=1;whiteSpace=wrap;html=1;arcSize=40;fontColor=#000000;fillColor=#ffffc0;strokeColor=#ff0000;" vertex="1" parent="xI2tX_Hjlg2Yhiu6L8t_-67">
          <mxGeometry x="95" y="413.1645569620253" width="120" height="51.64556962025316" as="geometry" />
        </mxCell>
        <mxCell id="xI2tX_Hjlg2Yhiu6L8t_-47" value="" style="html=1;verticalAlign=bottom;endArrow=open;endSize=8;strokeColor=#ff0000;rounded=0;" edge="1" source="xI2tX_Hjlg2Yhiu6L8t_-46" parent="xI2tX_Hjlg2Yhiu6L8t_-67" target="xI2tX_Hjlg2Yhiu6L8t_-48">
          <mxGeometry relative="1" as="geometry">
            <mxPoint x="155" y="542.2784810126583" as="targetPoint" />
          </mxGeometry>
        </mxCell>
        <mxCell id="xI2tX_Hjlg2Yhiu6L8t_-48" value="" style="shape=line;html=1;strokeWidth=6;strokeColor=#ff0000;" vertex="1" parent="xI2tX_Hjlg2Yhiu6L8t_-67">
          <mxGeometry x="250" y="645.5696202531645" width="200" height="12.91139240506329" as="geometry" />
        </mxCell>
        <mxCell id="xI2tX_Hjlg2Yhiu6L8t_-51" value="User enter the task" style="rounded=1;whiteSpace=wrap;html=1;arcSize=40;fontColor=#000000;fillColor=#ffffc0;strokeColor=#ff0000;" vertex="1" parent="xI2tX_Hjlg2Yhiu6L8t_-67">
          <mxGeometry x="290" y="284.0506329113924" width="120" height="51.64556962025316" as="geometry" />
        </mxCell>
        <mxCell id="xI2tX_Hjlg2Yhiu6L8t_-52" value="" style="edgeStyle=orthogonalEdgeStyle;html=1;verticalAlign=bottom;endArrow=open;endSize=8;strokeColor=#ff0000;rounded=0;entryX=0.5;entryY=0;entryDx=0;entryDy=0;" edge="1" source="xI2tX_Hjlg2Yhiu6L8t_-51" target="xI2tX_Hjlg2Yhiu6L8t_-53" parent="xI2tX_Hjlg2Yhiu6L8t_-67">
          <mxGeometry relative="1" as="geometry">
            <mxPoint x="340" y="413.1645569620253" as="targetPoint" />
          </mxGeometry>
        </mxCell>
        <mxCell id="xI2tX_Hjlg2Yhiu6L8t_-53" value="Console displayed that task have edited" style="rounded=1;whiteSpace=wrap;html=1;arcSize=40;fontColor=#000000;fillColor=#ffffc0;strokeColor=#ff0000;" vertex="1" parent="xI2tX_Hjlg2Yhiu6L8t_-67">
          <mxGeometry x="290" y="413.1645569620253" width="120" height="51.64556962025316" as="geometry" />
        </mxCell>
        <mxCell id="xI2tX_Hjlg2Yhiu6L8t_-54" value="" style="html=1;verticalAlign=bottom;endArrow=open;endSize=8;strokeColor=#ff0000;rounded=0;exitX=0.5;exitY=1;exitDx=0;exitDy=0;" edge="1" parent="xI2tX_Hjlg2Yhiu6L8t_-67" source="xI2tX_Hjlg2Yhiu6L8t_-53" target="xI2tX_Hjlg2Yhiu6L8t_-48">
          <mxGeometry relative="1" as="geometry">
            <mxPoint x="354" y="658.4810126582278" as="targetPoint" />
            <mxPoint x="189" y="477.72151898734177" as="sourcePoint" />
          </mxGeometry>
        </mxCell>
        <mxCell id="xI2tX_Hjlg2Yhiu6L8t_-55" value="User enter the task" style="rounded=1;whiteSpace=wrap;html=1;arcSize=40;fontColor=#000000;fillColor=#ffffc0;strokeColor=#ff0000;" vertex="1" parent="xI2tX_Hjlg2Yhiu6L8t_-67">
          <mxGeometry x="450" y="284.0506329113924" width="120" height="51.64556962025316" as="geometry" />
        </mxCell>
        <mxCell id="xI2tX_Hjlg2Yhiu6L8t_-56" value="" style="edgeStyle=orthogonalEdgeStyle;html=1;verticalAlign=bottom;endArrow=open;endSize=8;strokeColor=#ff0000;rounded=0;entryX=0.5;entryY=0;entryDx=0;entryDy=0;" edge="1" source="xI2tX_Hjlg2Yhiu6L8t_-55" target="xI2tX_Hjlg2Yhiu6L8t_-57" parent="xI2tX_Hjlg2Yhiu6L8t_-67">
          <mxGeometry relative="1" as="geometry">
            <mxPoint x="500" y="413.1645569620253" as="targetPoint" />
          </mxGeometry>
        </mxCell>
        <mxCell id="xI2tX_Hjlg2Yhiu6L8t_-57" value="Console displayed that task have deleted" style="rounded=1;whiteSpace=wrap;html=1;arcSize=40;fontColor=#000000;fillColor=#ffffc0;strokeColor=#ff0000;" vertex="1" parent="xI2tX_Hjlg2Yhiu6L8t_-67">
          <mxGeometry x="445" y="413.1645569620253" width="130" height="51.64556962025316" as="geometry" />
        </mxCell>
        <mxCell id="xI2tX_Hjlg2Yhiu6L8t_-58" value="" style="html=1;verticalAlign=bottom;endArrow=open;endSize=8;strokeColor=#ff0000;rounded=0;exitX=0.5;exitY=1;exitDx=0;exitDy=0;" edge="1" source="xI2tX_Hjlg2Yhiu6L8t_-57" parent="xI2tX_Hjlg2Yhiu6L8t_-67" target="xI2tX_Hjlg2Yhiu6L8t_-48">
          <mxGeometry relative="1" as="geometry">
            <mxPoint x="510" y="645.5696202531645" as="targetPoint" />
            <mxPoint x="349" y="477.72151898734177" as="sourcePoint" />
          </mxGeometry>
        </mxCell>
        <mxCell id="xI2tX_Hjlg2Yhiu6L8t_-18" value="User Selected to add Routine (1)" style="rounded=1;whiteSpace=wrap;html=1;arcSize=40;fontColor=#000000;fillColor=#ffffc0;strokeColor=#ff0000;" vertex="1" parent="xI2tX_Hjlg2Yhiu6L8t_-79">
          <mxGeometry x="290" width="120" height="51.64556962025316" as="geometry" />
        </mxCell>
        <mxCell id="xI2tX_Hjlg2Yhiu6L8t_-19" value="" style="edgeStyle=orthogonalEdgeStyle;html=1;verticalAlign=bottom;endArrow=open;endSize=8;strokeColor=#ff0000;rounded=0;entryX=0.5;entryY=0;entryDx=0;entryDy=0;" edge="1" source="xI2tX_Hjlg2Yhiu6L8t_-18" parent="xI2tX_Hjlg2Yhiu6L8t_-79" target="xI2tX_Hjlg2Yhiu6L8t_-20">
          <mxGeometry relative="1" as="geometry">
            <mxPoint x="350" y="129.1139240506329" as="targetPoint" />
          </mxGeometry>
        </mxCell>
        <mxCell id="xI2tX_Hjlg2Yhiu6L8t_-20" value="User input the name" style="rounded=1;whiteSpace=wrap;html=1;arcSize=40;fontColor=#000000;fillColor=#ffffc0;strokeColor=#ff0000;" vertex="1" parent="xI2tX_Hjlg2Yhiu6L8t_-79">
          <mxGeometry x="290" y="129.1139240506329" width="120" height="51.64556962025316" as="geometry" />
        </mxCell>
        <mxCell id="xI2tX_Hjlg2Yhiu6L8t_-21" value="" style="edgeStyle=orthogonalEdgeStyle;html=1;verticalAlign=bottom;endArrow=open;endSize=8;strokeColor=#ff0000;rounded=0;entryX=0.5;entryY=0;entryDx=0;entryDy=0;" edge="1" source="xI2tX_Hjlg2Yhiu6L8t_-20" parent="xI2tX_Hjlg2Yhiu6L8t_-79" target="xI2tX_Hjlg2Yhiu6L8t_-22">
          <mxGeometry relative="1" as="geometry">
            <mxPoint x="350" y="258.2278481012658" as="targetPoint" />
          </mxGeometry>
        </mxCell>
        <mxCell id="xI2tX_Hjlg2Yhiu6L8t_-22" value="User input the description" style="rounded=1;whiteSpace=wrap;html=1;arcSize=40;fontColor=#000000;fillColor=#ffffc0;strokeColor=#ff0000;" vertex="1" parent="xI2tX_Hjlg2Yhiu6L8t_-79">
          <mxGeometry x="290" y="258.2278481012658" width="120" height="51.64556962025316" as="geometry" />
        </mxCell>
        <mxCell id="xI2tX_Hjlg2Yhiu6L8t_-23" value="" style="edgeStyle=orthogonalEdgeStyle;html=1;verticalAlign=bottom;endArrow=open;endSize=8;strokeColor=#ff0000;rounded=0;" edge="1" source="xI2tX_Hjlg2Yhiu6L8t_-22" parent="xI2tX_Hjlg2Yhiu6L8t_-79">
          <mxGeometry relative="1" as="geometry">
            <mxPoint x="350" y="387.34177215189874" as="targetPoint" />
          </mxGeometry>
        </mxCell>
        <mxCell id="xI2tX_Hjlg2Yhiu6L8t_-24" value="User input the category" style="rounded=1;whiteSpace=wrap;html=1;arcSize=40;fontColor=#000000;fillColor=#ffffc0;strokeColor=#ff0000;" vertex="1" parent="xI2tX_Hjlg2Yhiu6L8t_-79">
          <mxGeometry x="290" y="387.34177215189874" width="120" height="51.64556962025316" as="geometry" />
        </mxCell>
        <mxCell id="xI2tX_Hjlg2Yhiu6L8t_-25" value="" style="edgeStyle=orthogonalEdgeStyle;html=1;verticalAlign=bottom;endArrow=open;endSize=8;strokeColor=#ff0000;rounded=0;entryX=0.5;entryY=0;entryDx=0;entryDy=0;" edge="1" source="xI2tX_Hjlg2Yhiu6L8t_-24" parent="xI2tX_Hjlg2Yhiu6L8t_-79" target="xI2tX_Hjlg2Yhiu6L8t_-26">
          <mxGeometry relative="1" as="geometry">
            <mxPoint x="350" y="516.4556962025316" as="targetPoint" />
          </mxGeometry>
        </mxCell>
        <mxCell id="xI2tX_Hjlg2Yhiu6L8t_-26" value="User input the note (optional)" style="rounded=1;whiteSpace=wrap;html=1;arcSize=40;fontColor=#000000;fillColor=#ffffc0;strokeColor=#ff0000;" vertex="1" parent="xI2tX_Hjlg2Yhiu6L8t_-79">
          <mxGeometry x="290" y="516.4556962025316" width="120" height="51.64556962025316" as="geometry" />
        </mxCell>
        <mxCell id="xI2tX_Hjlg2Yhiu6L8t_-27" value="" style="edgeStyle=orthogonalEdgeStyle;html=1;verticalAlign=bottom;endArrow=open;endSize=8;strokeColor=#ff0000;rounded=0;entryX=0.5;entryY=0;entryDx=0;entryDy=0;" edge="1" source="xI2tX_Hjlg2Yhiu6L8t_-26" parent="xI2tX_Hjlg2Yhiu6L8t_-79" target="xI2tX_Hjlg2Yhiu6L8t_-28">
          <mxGeometry relative="1" as="geometry">
            <mxPoint x="350" y="645.5696202531645" as="targetPoint" />
          </mxGeometry>
        </mxCell>
        <mxCell id="xI2tX_Hjlg2Yhiu6L8t_-28" value="User input the periodicity (optional)" style="rounded=1;whiteSpace=wrap;html=1;arcSize=40;fontColor=#000000;fillColor=#ffffc0;strokeColor=#ff0000;" vertex="1" parent="xI2tX_Hjlg2Yhiu6L8t_-79">
          <mxGeometry x="290" y="645.5696202531645" width="120" height="51.64556962025316" as="geometry" />
        </mxCell>
        <mxCell id="xI2tX_Hjlg2Yhiu6L8t_-29" value="" style="edgeStyle=orthogonalEdgeStyle;html=1;verticalAlign=bottom;endArrow=open;endSize=8;strokeColor=#ff0000;rounded=0;entryX=0.5;entryY=0;entryDx=0;entryDy=0;" edge="1" source="xI2tX_Hjlg2Yhiu6L8t_-28" parent="xI2tX_Hjlg2Yhiu6L8t_-79" target="xI2tX_Hjlg2Yhiu6L8t_-30">
          <mxGeometry relative="1" as="geometry">
            <mxPoint x="350" y="774.6835443037975" as="targetPoint" />
          </mxGeometry>
        </mxCell>
        <mxCell id="xI2tX_Hjlg2Yhiu6L8t_-30" value="Console Display to add, edit, or remove task" style="rounded=1;whiteSpace=wrap;html=1;arcSize=40;fontColor=#000000;fillColor=#ffffc0;strokeColor=#ff0000;" vertex="1" parent="xI2tX_Hjlg2Yhiu6L8t_-79">
          <mxGeometry x="290" y="774.6835443037975" width="120" height="64.55696202531645" as="geometry" />
        </mxCell>
        <mxCell id="xI2tX_Hjlg2Yhiu6L8t_-31" value="" style="edgeStyle=orthogonalEdgeStyle;html=1;verticalAlign=bottom;endArrow=open;endSize=8;strokeColor=#ff0000;rounded=0;entryX=0.503;entryY=0.32;entryDx=0;entryDy=0;entryPerimeter=0;" edge="1" source="xI2tX_Hjlg2Yhiu6L8t_-30" parent="xI2tX_Hjlg2Yhiu6L8t_-79" target="xI2tX_Hjlg2Yhiu6L8t_-34">
          <mxGeometry relative="1" as="geometry">
            <mxPoint x="350" y="929.620253164557" as="targetPoint" />
          </mxGeometry>
        </mxCell>
        <mxCell id="xI2tX_Hjlg2Yhiu6L8t_-69" value="UI send the info to RoutineService" style="rounded=1;whiteSpace=wrap;html=1;arcSize=40;fontColor=#000000;fillColor=#ffffc0;strokeColor=#ff0000;" vertex="1" parent="xI2tX_Hjlg2Yhiu6L8t_-357">
          <mxGeometry x="290" y="1820.3796202531644" width="120" height="51.64556962025316" as="geometry" />
        </mxCell>
        <mxCell id="xI2tX_Hjlg2Yhiu6L8t_-70" value="" style="edgeStyle=orthogonalEdgeStyle;html=1;verticalAlign=bottom;endArrow=open;endSize=8;strokeColor=#ff0000;rounded=0;entryX=0.5;entryY=0;entryDx=0;entryDy=0;" edge="1" source="xI2tX_Hjlg2Yhiu6L8t_-69" parent="xI2tX_Hjlg2Yhiu6L8t_-357" target="xI2tX_Hjlg2Yhiu6L8t_-71">
          <mxGeometry relative="1" as="geometry">
            <mxPoint x="350" y="1949.4935443037975" as="targetPoint" />
          </mxGeometry>
        </mxCell>
        <mxCell id="xI2tX_Hjlg2Yhiu6L8t_-72" value="" style="edgeStyle=orthogonalEdgeStyle;html=1;verticalAlign=bottom;endArrow=open;endSize=8;strokeColor=#ff0000;rounded=0;entryX=0.5;entryY=0;entryDx=0;entryDy=0;" edge="1" source="xI2tX_Hjlg2Yhiu6L8t_-71" parent="xI2tX_Hjlg2Yhiu6L8t_-357" target="xI2tX_Hjlg2Yhiu6L8t_-73">
          <mxGeometry relative="1" as="geometry">
            <mxPoint x="350" y="2117.34164556962" as="targetPoint" />
          </mxGeometry>
        </mxCell>
        <mxCell id="xI2tX_Hjlg2Yhiu6L8t_-71" value="RoutineService add Routine info to the List" style="rounded=1;whiteSpace=wrap;html=1;arcSize=40;fontColor=#000000;fillColor=#ffffc0;strokeColor=#ff0000;" vertex="1" parent="xI2tX_Hjlg2Yhiu6L8t_-357">
          <mxGeometry x="290" y="1949.4935443037975" width="120" height="77.46835443037975" as="geometry" />
        </mxCell>
        <mxCell id="xI2tX_Hjlg2Yhiu6L8t_-73" value="Console display that Routine have added or failed to add" style="rounded=1;whiteSpace=wrap;html=1;arcSize=40;fontColor=#000000;fillColor=#ffffc0;strokeColor=#ff0000;" vertex="1" parent="xI2tX_Hjlg2Yhiu6L8t_-357">
          <mxGeometry x="290" y="2117.34164556962" width="120" height="77.46835443037975" as="geometry" />
        </mxCell>
        <mxCell id="xI2tX_Hjlg2Yhiu6L8t_-358" value="User selected to exit the task list (0)" style="rounded=1;whiteSpace=wrap;html=1;arcSize=40;fontColor=#000000;fillColor=#ffffc0;strokeColor=#ff0000;" vertex="1" parent="xI2tX_Hjlg2Yhiu6L8t_-360">
          <mxGeometry x="290" y="1689.9996202531643" width="120" height="51.64556962025316" as="geometry" />
        </mxCell>
        <mxCell id="xI2tX_Hjlg2Yhiu6L8t_-359" value="" style="edgeStyle=orthogonalEdgeStyle;html=1;verticalAlign=bottom;endArrow=open;endSize=8;strokeColor=#ff0000;rounded=0;entryX=0.5;entryY=0;entryDx=0;entryDy=0;" edge="1" source="xI2tX_Hjlg2Yhiu6L8t_-358" parent="xI2tX_Hjlg2Yhiu6L8t_-360" target="xI2tX_Hjlg2Yhiu6L8t_-69">
          <mxGeometry relative="1" as="geometry">
            <mxPoint x="350" y="1818.62" as="targetPoint" />
          </mxGeometry>
        </mxCell>
        <mxCell id="xI2tX_Hjlg2Yhiu6L8t_-49" value="" style="edgeStyle=orthogonalEdgeStyle;html=1;verticalAlign=bottom;endArrow=open;endSize=8;strokeColor=#ff0000;rounded=0;entryX=0.5;entryY=0;entryDx=0;entryDy=0;" edge="1" source="xI2tX_Hjlg2Yhiu6L8t_-48" parent="xI2tX_Hjlg2Yhiu6L8t_-360" target="xI2tX_Hjlg2Yhiu6L8t_-358">
          <mxGeometry relative="1" as="geometry">
            <mxPoint x="350" y="1670" as="targetPoint" />
            <mxPoint x="350" y="1600" as="sourcePoint" />
          </mxGeometry>
        </mxCell>
        <mxCell id="xI2tX_Hjlg2Yhiu6L8t_-11" value="" style="html=1;verticalAlign=bottom;endArrow=open;endSize=8;strokeColor=#ff0000;rounded=0;entryX=0.5;entryY=0;entryDx=0;entryDy=0;" edge="1" source="xI2tX_Hjlg2Yhiu6L8t_-10" parent="xI2tX_Hjlg2Yhiu6L8t_-361" target="xI2tX_Hjlg2Yhiu6L8t_-18">
          <mxGeometry relative="1" as="geometry">
            <mxPoint x="1940" y="377.08860759493666" as="targetPoint" />
          </mxGeometry>
        </mxCell>
        <mxCell id="xI2tX_Hjlg2Yhiu6L8t_-74" value="" style="html=1;verticalAlign=bottom;endArrow=open;endSize=8;strokeColor=#ff0000;rounded=0;" edge="1" source="xI2tX_Hjlg2Yhiu6L8t_-73" parent="xI2tX_Hjlg2Yhiu6L8t_-361" target="xI2tX_Hjlg2Yhiu6L8t_-77">
          <mxGeometry relative="1" as="geometry">
            <mxPoint x="1580" y="2507.46835443038" as="targetPoint" />
          </mxGeometry>
        </mxCell>
        <mxCell id="xI2tX_Hjlg2Yhiu6L8t_-366" value="" style="group" vertex="1" connectable="0" parent="xI2tX_Hjlg2Yhiu6L8t_-356">
          <mxGeometry x="3065" y="500" width="1170" height="2360" as="geometry" />
        </mxCell>
        <mxCell id="xI2tX_Hjlg2Yhiu6L8t_-163" value="" style="html=1;verticalAlign=bottom;endArrow=open;endSize=8;strokeColor=#ff0000;rounded=0;entryX=0.5;entryY=0;entryDx=0;entryDy=0;" edge="1" parent="xI2tX_Hjlg2Yhiu6L8t_-366" source="xI2tX_Hjlg2Yhiu6L8t_-10" target="xI2tX_Hjlg2Yhiu6L8t_-164">
          <mxGeometry relative="1" as="geometry">
            <mxPoint x="750" y="20" as="targetPoint" />
            <mxPoint x="1168" y="-270" as="sourcePoint" />
          </mxGeometry>
        </mxCell>
        <mxCell id="xI2tX_Hjlg2Yhiu6L8t_-190" value="" style="html=1;verticalAlign=bottom;endArrow=open;endSize=8;strokeColor=#ff0000;rounded=0;" edge="1" source="xI2tX_Hjlg2Yhiu6L8t_-189" parent="xI2tX_Hjlg2Yhiu6L8t_-366" target="xI2tX_Hjlg2Yhiu6L8t_-77">
          <mxGeometry relative="1" as="geometry">
            <mxPoint x="200" y="1890" as="targetPoint" />
          </mxGeometry>
        </mxCell>
        <mxCell id="xI2tX_Hjlg2Yhiu6L8t_-365" value="" style="group" vertex="1" connectable="0" parent="xI2tX_Hjlg2Yhiu6L8t_-366">
          <mxGeometry width="1170" height="2360" as="geometry" />
        </mxCell>
        <mxCell id="xI2tX_Hjlg2Yhiu6L8t_-254" value="UI send service with info to update routine" style="rounded=1;whiteSpace=wrap;html=1;arcSize=40;fontColor=#000000;fillColor=#ffffc0;strokeColor=#ff0000;" vertex="1" parent="xI2tX_Hjlg2Yhiu6L8t_-365">
          <mxGeometry x="630" y="1679.52" width="120" height="70" as="geometry" />
        </mxCell>
        <mxCell id="xI2tX_Hjlg2Yhiu6L8t_-255" value="" style="edgeStyle=orthogonalEdgeStyle;html=1;verticalAlign=bottom;endArrow=open;endSize=8;strokeColor=#ff0000;rounded=0;entryX=0.5;entryY=0;entryDx=0;entryDy=0;" edge="1" source="xI2tX_Hjlg2Yhiu6L8t_-254" parent="xI2tX_Hjlg2Yhiu6L8t_-365" target="xI2tX_Hjlg2Yhiu6L8t_-260">
          <mxGeometry relative="1" as="geometry">
            <mxPoint x="864.6999999999998" y="1829.52" as="targetPoint" />
          </mxGeometry>
        </mxCell>
        <mxCell id="xI2tX_Hjlg2Yhiu6L8t_-261" value="" style="edgeStyle=orthogonalEdgeStyle;html=1;verticalAlign=bottom;endArrow=open;endSize=8;strokeColor=#ff0000;rounded=0;entryX=0.5;entryY=0;entryDx=0;entryDy=0;" edge="1" source="xI2tX_Hjlg2Yhiu6L8t_-260" parent="xI2tX_Hjlg2Yhiu6L8t_-365" target="xI2tX_Hjlg2Yhiu6L8t_-262">
          <mxGeometry relative="1" as="geometry">
            <mxPoint x="864.6999999999998" y="1959.52" as="targetPoint" />
          </mxGeometry>
        </mxCell>
        <mxCell id="xI2tX_Hjlg2Yhiu6L8t_-263" value="" style="edgeStyle=orthogonalEdgeStyle;html=1;verticalAlign=bottom;endArrow=open;endSize=8;strokeColor=#ff0000;rounded=0;entryX=0.5;entryY=0;entryDx=0;entryDy=0;" edge="1" source="xI2tX_Hjlg2Yhiu6L8t_-262" parent="xI2tX_Hjlg2Yhiu6L8t_-365" target="xI2tX_Hjlg2Yhiu6L8t_-264">
          <mxGeometry relative="1" as="geometry">
            <mxPoint x="864.6999999999998" y="2089.52" as="targetPoint" />
          </mxGeometry>
        </mxCell>
        <mxCell id="xI2tX_Hjlg2Yhiu6L8t_-265" value="" style="html=1;verticalAlign=bottom;endArrow=open;endSize=8;strokeColor=#ff0000;rounded=0;" edge="1" source="xI2tX_Hjlg2Yhiu6L8t_-264" parent="xI2tX_Hjlg2Yhiu6L8t_-365" target="xI2tX_Hjlg2Yhiu6L8t_-192">
          <mxGeometry relative="1" as="geometry">
            <mxPoint x="553.04347826087" y="2329.52" as="targetPoint" />
          </mxGeometry>
        </mxCell>
        <mxCell id="xI2tX_Hjlg2Yhiu6L8t_-264" value="Service update routine with new info" style="rounded=1;whiteSpace=wrap;html=1;arcSize=40;fontColor=#000000;fillColor=#ffffc0;strokeColor=#ff0000;" vertex="1" parent="xI2tX_Hjlg2Yhiu6L8t_-365">
          <mxGeometry x="630" y="2069.52" width="120" height="70" as="geometry" />
        </mxCell>
        <mxCell id="xI2tX_Hjlg2Yhiu6L8t_-262" value="Service search the routine by name" style="rounded=1;whiteSpace=wrap;html=1;arcSize=40;fontColor=#000000;fillColor=#ffffc0;strokeColor=#ff0000;" vertex="1" parent="xI2tX_Hjlg2Yhiu6L8t_-365">
          <mxGeometry x="630" y="1939.52" width="120" height="70" as="geometry" />
        </mxCell>
        <mxCell id="xI2tX_Hjlg2Yhiu6L8t_-260" value="Service search the routine by name" style="rounded=1;whiteSpace=wrap;html=1;arcSize=40;fontColor=#000000;fillColor=#ffffc0;strokeColor=#ff0000;" vertex="1" parent="xI2tX_Hjlg2Yhiu6L8t_-365">
          <mxGeometry x="630" y="1809.52" width="120" height="70" as="geometry" />
        </mxCell>
        <mxCell id="xI2tX_Hjlg2Yhiu6L8t_-364" value="" style="group" vertex="1" connectable="0" parent="xI2tX_Hjlg2Yhiu6L8t_-365">
          <mxGeometry width="1170" height="2360" as="geometry" />
        </mxCell>
        <mxCell id="xI2tX_Hjlg2Yhiu6L8t_-352" value="" style="group" vertex="1" connectable="0" parent="xI2tX_Hjlg2Yhiu6L8t_-364">
          <mxGeometry width="1170" height="2360" as="geometry" />
        </mxCell>
        <mxCell id="xI2tX_Hjlg2Yhiu6L8t_-266" value="" style="group" vertex="1" connectable="0" parent="xI2tX_Hjlg2Yhiu6L8t_-352">
          <mxGeometry width="1170" height="2360" as="geometry" />
        </mxCell>
        <mxCell id="xI2tX_Hjlg2Yhiu6L8t_-226" value="" style="group" vertex="1" connectable="0" parent="xI2tX_Hjlg2Yhiu6L8t_-266">
          <mxGeometry x="520" y="810" width="650" height="671.39" as="geometry" />
        </mxCell>
        <mxCell id="xI2tX_Hjlg2Yhiu6L8t_-227" value="&amp;lt;&amp;lt;iterative&amp;gt;&amp;gt;" style="dashed=1;rounded=1;absoluteArcSize=1;arcSize=20;html=1;verticalAlign=top;align=left;spacingTop=5;spacingLeft=10;whiteSpace=wrap;" vertex="1" parent="xI2tX_Hjlg2Yhiu6L8t_-226">
          <mxGeometry width="650.0000000000001" height="671.39" as="geometry" />
        </mxCell>
        <mxCell id="xI2tX_Hjlg2Yhiu6L8t_-228" value="" style="shape=line;html=1;strokeWidth=6;strokeColor=#ff0000;" vertex="1" parent="xI2tX_Hjlg2Yhiu6L8t_-226">
          <mxGeometry x="246.21212121212125" y="12.911346153846152" width="196.969696969697" height="12.911346153846152" as="geometry" />
        </mxCell>
        <mxCell id="xI2tX_Hjlg2Yhiu6L8t_-229" value="" style="html=1;verticalAlign=bottom;endArrow=open;endSize=8;strokeColor=#ff0000;rounded=0;entryX=0.5;entryY=0;entryDx=0;entryDy=0;" edge="1" parent="xI2tX_Hjlg2Yhiu6L8t_-226" source="xI2tX_Hjlg2Yhiu6L8t_-228" target="xI2tX_Hjlg2Yhiu6L8t_-230">
          <mxGeometry relative="1" as="geometry">
            <mxPoint x="344.69696969696975" y="116.20211538461537" as="targetPoint" />
          </mxGeometry>
        </mxCell>
        <mxCell id="xI2tX_Hjlg2Yhiu6L8t_-230" value="User selected to add task (1)" style="rounded=1;whiteSpace=wrap;html=1;arcSize=40;fontColor=#000000;fillColor=#ffffc0;strokeColor=#ff0000;" vertex="1" parent="xI2tX_Hjlg2Yhiu6L8t_-226">
          <mxGeometry x="93.56060606060608" y="154.93615384615384" width="118.1818181818182" height="51.64538461538461" as="geometry" />
        </mxCell>
        <mxCell id="xI2tX_Hjlg2Yhiu6L8t_-231" value="" style="edgeStyle=orthogonalEdgeStyle;html=1;verticalAlign=bottom;endArrow=open;endSize=8;strokeColor=#ff0000;rounded=0;entryX=0.5;entryY=0;entryDx=0;entryDy=0;" edge="1" parent="xI2tX_Hjlg2Yhiu6L8t_-226" source="xI2tX_Hjlg2Yhiu6L8t_-230" target="xI2tX_Hjlg2Yhiu6L8t_-238">
          <mxGeometry relative="1" as="geometry">
            <mxPoint x="152.65151515151518" y="284.0496153846154" as="targetPoint" />
          </mxGeometry>
        </mxCell>
        <mxCell id="xI2tX_Hjlg2Yhiu6L8t_-232" value="User selected to edit task (2)" style="rounded=1;whiteSpace=wrap;html=1;arcSize=40;fontColor=#000000;fillColor=#ffffc0;strokeColor=#ff0000;" vertex="1" parent="xI2tX_Hjlg2Yhiu6L8t_-226">
          <mxGeometry x="285.6060606060606" y="154.93615384615384" width="118.1818181818182" height="51.64538461538461" as="geometry" />
        </mxCell>
        <mxCell id="xI2tX_Hjlg2Yhiu6L8t_-233" value="" style="edgeStyle=orthogonalEdgeStyle;html=1;verticalAlign=bottom;endArrow=open;endSize=8;strokeColor=#ff0000;rounded=0;entryX=0.5;entryY=0;entryDx=0;entryDy=0;" edge="1" parent="xI2tX_Hjlg2Yhiu6L8t_-226" source="xI2tX_Hjlg2Yhiu6L8t_-232" target="xI2tX_Hjlg2Yhiu6L8t_-243">
          <mxGeometry relative="1" as="geometry">
            <mxPoint x="334.8484848484849" y="284.0496153846154" as="targetPoint" />
          </mxGeometry>
        </mxCell>
        <mxCell id="xI2tX_Hjlg2Yhiu6L8t_-234" value="User selected to delete task (3)" style="rounded=1;whiteSpace=wrap;html=1;arcSize=40;fontColor=#000000;fillColor=#ffffc0;strokeColor=#ff0000;" vertex="1" parent="xI2tX_Hjlg2Yhiu6L8t_-226">
          <mxGeometry x="443.18181818181824" y="154.93615384615384" width="118.1818181818182" height="51.64538461538461" as="geometry" />
        </mxCell>
        <mxCell id="xI2tX_Hjlg2Yhiu6L8t_-235" value="" style="edgeStyle=orthogonalEdgeStyle;html=1;verticalAlign=bottom;endArrow=open;endSize=8;strokeColor=#ff0000;rounded=0;entryX=0.5;entryY=0;entryDx=0;entryDy=0;" edge="1" parent="xI2tX_Hjlg2Yhiu6L8t_-226" source="xI2tX_Hjlg2Yhiu6L8t_-234" target="xI2tX_Hjlg2Yhiu6L8t_-247">
          <mxGeometry relative="1" as="geometry">
            <mxPoint x="502.2727272727273" y="284.0496153846154" as="targetPoint" />
          </mxGeometry>
        </mxCell>
        <mxCell id="xI2tX_Hjlg2Yhiu6L8t_-236" value="" style="html=1;verticalAlign=bottom;endArrow=open;endSize=8;strokeColor=#ff0000;rounded=0;entryX=0.5;entryY=0;entryDx=0;entryDy=0;" edge="1" parent="xI2tX_Hjlg2Yhiu6L8t_-226" source="xI2tX_Hjlg2Yhiu6L8t_-228" target="xI2tX_Hjlg2Yhiu6L8t_-232">
          <mxGeometry relative="1" as="geometry">
            <mxPoint x="162.50000000000003" y="167.8475" as="targetPoint" />
            <mxPoint x="344.69696969696975" y="12.911346153846152" as="sourcePoint" />
          </mxGeometry>
        </mxCell>
        <mxCell id="xI2tX_Hjlg2Yhiu6L8t_-237" value="" style="html=1;verticalAlign=bottom;endArrow=open;endSize=8;strokeColor=#ff0000;rounded=0;entryX=0.5;entryY=0;entryDx=0;entryDy=0;" edge="1" parent="xI2tX_Hjlg2Yhiu6L8t_-226" source="xI2tX_Hjlg2Yhiu6L8t_-228" target="xI2tX_Hjlg2Yhiu6L8t_-234">
          <mxGeometry relative="1" as="geometry">
            <mxPoint x="344.69696969696975" y="167.8475" as="targetPoint" />
            <mxPoint x="354.54545454545456" y="38.73403846153846" as="sourcePoint" />
          </mxGeometry>
        </mxCell>
        <mxCell id="xI2tX_Hjlg2Yhiu6L8t_-238" value="User enter the task" style="rounded=1;whiteSpace=wrap;html=1;arcSize=40;fontColor=#000000;fillColor=#ffffc0;strokeColor=#ff0000;" vertex="1" parent="xI2tX_Hjlg2Yhiu6L8t_-226">
          <mxGeometry x="93.56060606060608" y="284.0496153846154" width="118.1818181818182" height="51.64538461538461" as="geometry" />
        </mxCell>
        <mxCell id="xI2tX_Hjlg2Yhiu6L8t_-239" value="" style="edgeStyle=orthogonalEdgeStyle;html=1;verticalAlign=bottom;endArrow=open;endSize=8;strokeColor=#ff0000;rounded=0;entryX=0.5;entryY=0;entryDx=0;entryDy=0;" edge="1" parent="xI2tX_Hjlg2Yhiu6L8t_-226" source="xI2tX_Hjlg2Yhiu6L8t_-238" target="xI2tX_Hjlg2Yhiu6L8t_-240">
          <mxGeometry relative="1" as="geometry">
            <mxPoint x="152.65151515151518" y="413.16307692307686" as="targetPoint" />
          </mxGeometry>
        </mxCell>
        <mxCell id="xI2tX_Hjlg2Yhiu6L8t_-240" value="Console displayed that task have added" style="rounded=1;whiteSpace=wrap;html=1;arcSize=40;fontColor=#000000;fillColor=#ffffc0;strokeColor=#ff0000;" vertex="1" parent="xI2tX_Hjlg2Yhiu6L8t_-226">
          <mxGeometry x="93.56060606060608" y="413.16307692307686" width="118.1818181818182" height="51.64538461538461" as="geometry" />
        </mxCell>
        <mxCell id="xI2tX_Hjlg2Yhiu6L8t_-241" value="" style="html=1;verticalAlign=bottom;endArrow=open;endSize=8;strokeColor=#ff0000;rounded=0;" edge="1" parent="xI2tX_Hjlg2Yhiu6L8t_-226" source="xI2tX_Hjlg2Yhiu6L8t_-240" target="xI2tX_Hjlg2Yhiu6L8t_-242">
          <mxGeometry relative="1" as="geometry">
            <mxPoint x="152.65151515151518" y="542.2765384615385" as="targetPoint" />
          </mxGeometry>
        </mxCell>
        <mxCell id="xI2tX_Hjlg2Yhiu6L8t_-242" value="" style="shape=line;html=1;strokeWidth=6;strokeColor=#ff0000;" vertex="1" parent="xI2tX_Hjlg2Yhiu6L8t_-226">
          <mxGeometry x="246.21212121212125" y="645.5673076923076" width="196.969696969697" height="12.911346153846152" as="geometry" />
        </mxCell>
        <mxCell id="xI2tX_Hjlg2Yhiu6L8t_-243" value="User enter the task" style="rounded=1;whiteSpace=wrap;html=1;arcSize=40;fontColor=#000000;fillColor=#ffffc0;strokeColor=#ff0000;" vertex="1" parent="xI2tX_Hjlg2Yhiu6L8t_-226">
          <mxGeometry x="285.6060606060606" y="284.0496153846154" width="118.1818181818182" height="51.64538461538461" as="geometry" />
        </mxCell>
        <mxCell id="xI2tX_Hjlg2Yhiu6L8t_-244" value="" style="edgeStyle=orthogonalEdgeStyle;html=1;verticalAlign=bottom;endArrow=open;endSize=8;strokeColor=#ff0000;rounded=0;entryX=0.5;entryY=0;entryDx=0;entryDy=0;" edge="1" parent="xI2tX_Hjlg2Yhiu6L8t_-226" source="xI2tX_Hjlg2Yhiu6L8t_-243" target="xI2tX_Hjlg2Yhiu6L8t_-245">
          <mxGeometry relative="1" as="geometry">
            <mxPoint x="334.8484848484849" y="413.16307692307686" as="targetPoint" />
          </mxGeometry>
        </mxCell>
        <mxCell id="xI2tX_Hjlg2Yhiu6L8t_-245" value="Console displayed that task have edited" style="rounded=1;whiteSpace=wrap;html=1;arcSize=40;fontColor=#000000;fillColor=#ffffc0;strokeColor=#ff0000;" vertex="1" parent="xI2tX_Hjlg2Yhiu6L8t_-226">
          <mxGeometry x="285.6060606060606" y="413.16307692307686" width="118.1818181818182" height="51.64538461538461" as="geometry" />
        </mxCell>
        <mxCell id="xI2tX_Hjlg2Yhiu6L8t_-246" value="" style="html=1;verticalAlign=bottom;endArrow=open;endSize=8;strokeColor=#ff0000;rounded=0;exitX=0.5;exitY=1;exitDx=0;exitDy=0;" edge="1" parent="xI2tX_Hjlg2Yhiu6L8t_-226" source="xI2tX_Hjlg2Yhiu6L8t_-245" target="xI2tX_Hjlg2Yhiu6L8t_-242">
          <mxGeometry relative="1" as="geometry">
            <mxPoint x="348.6363636363637" y="658.4786538461537" as="targetPoint" />
            <mxPoint x="186.13636363636365" y="477.71980769230765" as="sourcePoint" />
          </mxGeometry>
        </mxCell>
        <mxCell id="xI2tX_Hjlg2Yhiu6L8t_-247" value="User enter the task" style="rounded=1;whiteSpace=wrap;html=1;arcSize=40;fontColor=#000000;fillColor=#ffffc0;strokeColor=#ff0000;" vertex="1" parent="xI2tX_Hjlg2Yhiu6L8t_-226">
          <mxGeometry x="443.18181818181824" y="284.0496153846154" width="118.1818181818182" height="51.64538461538461" as="geometry" />
        </mxCell>
        <mxCell id="xI2tX_Hjlg2Yhiu6L8t_-248" value="" style="edgeStyle=orthogonalEdgeStyle;html=1;verticalAlign=bottom;endArrow=open;endSize=8;strokeColor=#ff0000;rounded=0;entryX=0.5;entryY=0;entryDx=0;entryDy=0;" edge="1" parent="xI2tX_Hjlg2Yhiu6L8t_-226" source="xI2tX_Hjlg2Yhiu6L8t_-247" target="xI2tX_Hjlg2Yhiu6L8t_-249">
          <mxGeometry relative="1" as="geometry">
            <mxPoint x="492.4242424242425" y="413.16307692307686" as="targetPoint" />
          </mxGeometry>
        </mxCell>
        <mxCell id="xI2tX_Hjlg2Yhiu6L8t_-249" value="Console displayed that task have deleted" style="rounded=1;whiteSpace=wrap;html=1;arcSize=40;fontColor=#000000;fillColor=#ffffc0;strokeColor=#ff0000;" vertex="1" parent="xI2tX_Hjlg2Yhiu6L8t_-226">
          <mxGeometry x="438.25757575757586" y="413.16307692307686" width="128.03030303030306" height="51.64538461538461" as="geometry" />
        </mxCell>
        <mxCell id="xI2tX_Hjlg2Yhiu6L8t_-250" value="" style="html=1;verticalAlign=bottom;endArrow=open;endSize=8;strokeColor=#ff0000;rounded=0;exitX=0.5;exitY=1;exitDx=0;exitDy=0;" edge="1" parent="xI2tX_Hjlg2Yhiu6L8t_-226" source="xI2tX_Hjlg2Yhiu6L8t_-249" target="xI2tX_Hjlg2Yhiu6L8t_-242">
          <mxGeometry relative="1" as="geometry">
            <mxPoint x="502.2727272727273" y="645.5673076923076" as="targetPoint" />
            <mxPoint x="343.71212121212125" y="477.71980769230765" as="sourcePoint" />
          </mxGeometry>
        </mxCell>
        <mxCell id="xI2tX_Hjlg2Yhiu6L8t_-164" value="User selected to update routine (5)" style="rounded=1;whiteSpace=wrap;html=1;arcSize=40;fontColor=#000000;fillColor=#ffffc0;strokeColor=#ff0000;" vertex="1" parent="xI2tX_Hjlg2Yhiu6L8t_-266">
          <mxGeometry x="285" width="120" height="40" as="geometry" />
        </mxCell>
        <mxCell id="xI2tX_Hjlg2Yhiu6L8t_-165" value="" style="edgeStyle=orthogonalEdgeStyle;html=1;verticalAlign=bottom;endArrow=open;endSize=8;strokeColor=#ff0000;rounded=0;entryX=0.5;entryY=0;entryDx=0;entryDy=0;" edge="1" source="xI2tX_Hjlg2Yhiu6L8t_-164" parent="xI2tX_Hjlg2Yhiu6L8t_-266" target="xI2tX_Hjlg2Yhiu6L8t_-166">
          <mxGeometry relative="1" as="geometry">
            <mxPoint x="345" y="100" as="targetPoint" />
          </mxGeometry>
        </mxCell>
        <mxCell id="xI2tX_Hjlg2Yhiu6L8t_-166" value="Console display user to choose options to update" style="rounded=1;whiteSpace=wrap;html=1;arcSize=40;fontColor=#000000;fillColor=#ffffc0;strokeColor=#ff0000;" vertex="1" parent="xI2tX_Hjlg2Yhiu6L8t_-266">
          <mxGeometry x="285" y="100" width="120" height="60" as="geometry" />
        </mxCell>
        <mxCell id="xI2tX_Hjlg2Yhiu6L8t_-167" value="" style="edgeStyle=orthogonalEdgeStyle;html=1;verticalAlign=bottom;endArrow=open;endSize=8;strokeColor=#ff0000;rounded=0;entryX=0.503;entryY=0.133;entryDx=0;entryDy=0;entryPerimeter=0;" edge="1" source="xI2tX_Hjlg2Yhiu6L8t_-166" parent="xI2tX_Hjlg2Yhiu6L8t_-266" target="xI2tX_Hjlg2Yhiu6L8t_-168">
          <mxGeometry relative="1" as="geometry">
            <mxPoint x="345" y="220" as="targetPoint" />
          </mxGeometry>
        </mxCell>
        <mxCell id="xI2tX_Hjlg2Yhiu6L8t_-168" value="" style="shape=line;html=1;strokeWidth=6;strokeColor=#ff0000;" vertex="1" parent="xI2tX_Hjlg2Yhiu6L8t_-266">
          <mxGeometry x="172.5" y="220" width="345" height="10" as="geometry" />
        </mxCell>
        <mxCell id="xI2tX_Hjlg2Yhiu6L8t_-169" value="" style="html=1;verticalAlign=bottom;endArrow=open;endSize=8;strokeColor=#ff0000;rounded=0;entryX=0.5;entryY=0;entryDx=0;entryDy=0;" edge="1" source="xI2tX_Hjlg2Yhiu6L8t_-168" parent="xI2tX_Hjlg2Yhiu6L8t_-266" target="xI2tX_Hjlg2Yhiu6L8t_-173">
          <mxGeometry relative="1" as="geometry">
            <mxPoint x="80" y="350" as="targetPoint" />
          </mxGeometry>
        </mxCell>
        <mxCell id="xI2tX_Hjlg2Yhiu6L8t_-170" value="" style="html=1;verticalAlign=bottom;endArrow=open;endSize=8;strokeColor=#ff0000;rounded=0;entryX=0.5;entryY=0;entryDx=0;entryDy=0;" edge="1" parent="xI2tX_Hjlg2Yhiu6L8t_-266" source="xI2tX_Hjlg2Yhiu6L8t_-168" target="xI2tX_Hjlg2Yhiu6L8t_-222">
          <mxGeometry relative="1" as="geometry">
            <mxPoint x="790" y="420" as="targetPoint" />
            <mxPoint x="1458" y="330" as="sourcePoint" />
          </mxGeometry>
        </mxCell>
        <mxCell id="xI2tX_Hjlg2Yhiu6L8t_-172" value="" style="html=1;verticalAlign=bottom;endArrow=open;endSize=8;strokeColor=#ff0000;rounded=0;entryX=0.5;entryY=0;entryDx=0;entryDy=0;" edge="1" parent="xI2tX_Hjlg2Yhiu6L8t_-266" source="xI2tX_Hjlg2Yhiu6L8t_-168" target="xI2tX_Hjlg2Yhiu6L8t_-195">
          <mxGeometry relative="1" as="geometry">
            <mxPoint x="230" y="380" as="targetPoint" />
            <mxPoint x="434" y="290" as="sourcePoint" />
          </mxGeometry>
        </mxCell>
        <mxCell id="xI2tX_Hjlg2Yhiu6L8t_-173" value="User selected to update name, description, and notes (1)" style="rounded=1;whiteSpace=wrap;html=1;arcSize=40;fontColor=#000000;fillColor=#ffffc0;strokeColor=#ff0000;" vertex="1" parent="xI2tX_Hjlg2Yhiu6L8t_-266">
          <mxGeometry y="380" width="120" height="70" as="geometry" />
        </mxCell>
        <mxCell id="xI2tX_Hjlg2Yhiu6L8t_-174" value="" style="edgeStyle=orthogonalEdgeStyle;html=1;verticalAlign=bottom;endArrow=open;endSize=8;strokeColor=#ff0000;rounded=0;entryX=0.5;entryY=0;entryDx=0;entryDy=0;" edge="1" source="xI2tX_Hjlg2Yhiu6L8t_-173" parent="xI2tX_Hjlg2Yhiu6L8t_-266" target="xI2tX_Hjlg2Yhiu6L8t_-175">
          <mxGeometry relative="1" as="geometry">
            <mxPoint x="60" y="510" as="targetPoint" />
          </mxGeometry>
        </mxCell>
        <mxCell id="xI2tX_Hjlg2Yhiu6L8t_-175" value="User enter the old name" style="rounded=1;whiteSpace=wrap;html=1;arcSize=40;fontColor=#000000;fillColor=#ffffc0;strokeColor=#ff0000;" vertex="1" parent="xI2tX_Hjlg2Yhiu6L8t_-266">
          <mxGeometry y="520" width="120" height="70" as="geometry" />
        </mxCell>
        <mxCell id="xI2tX_Hjlg2Yhiu6L8t_-176" value="" style="edgeStyle=orthogonalEdgeStyle;html=1;verticalAlign=bottom;endArrow=open;endSize=8;strokeColor=#ff0000;rounded=0;entryX=0.5;entryY=0;entryDx=0;entryDy=0;" edge="1" source="xI2tX_Hjlg2Yhiu6L8t_-175" parent="xI2tX_Hjlg2Yhiu6L8t_-266" target="xI2tX_Hjlg2Yhiu6L8t_-177">
          <mxGeometry relative="1" as="geometry">
            <mxPoint x="60" y="650" as="targetPoint" />
          </mxGeometry>
        </mxCell>
        <mxCell id="xI2tX_Hjlg2Yhiu6L8t_-177" value="User enter the new name" style="rounded=1;whiteSpace=wrap;html=1;arcSize=40;fontColor=#000000;fillColor=#ffffc0;strokeColor=#ff0000;" vertex="1" parent="xI2tX_Hjlg2Yhiu6L8t_-266">
          <mxGeometry y="650" width="120" height="70" as="geometry" />
        </mxCell>
        <mxCell id="xI2tX_Hjlg2Yhiu6L8t_-181" value="User enter the new note" style="rounded=1;whiteSpace=wrap;html=1;arcSize=40;fontColor=#000000;fillColor=#ffffc0;strokeColor=#ff0000;" vertex="1" parent="xI2tX_Hjlg2Yhiu6L8t_-266">
          <mxGeometry y="910" width="120" height="70" as="geometry" />
        </mxCell>
        <mxCell id="xI2tX_Hjlg2Yhiu6L8t_-182" value="" style="edgeStyle=orthogonalEdgeStyle;html=1;verticalAlign=bottom;endArrow=open;endSize=8;strokeColor=#ff0000;rounded=0;entryX=0.5;entryY=0;entryDx=0;entryDy=0;" edge="1" source="xI2tX_Hjlg2Yhiu6L8t_-181" parent="xI2tX_Hjlg2Yhiu6L8t_-266" target="xI2tX_Hjlg2Yhiu6L8t_-183">
          <mxGeometry relative="1" as="geometry">
            <mxPoint x="60" y="1040" as="targetPoint" />
          </mxGeometry>
        </mxCell>
        <mxCell id="xI2tX_Hjlg2Yhiu6L8t_-183" value="UI send service with info to update routine" style="rounded=1;whiteSpace=wrap;html=1;arcSize=40;fontColor=#000000;fillColor=#ffffc0;strokeColor=#ff0000;" vertex="1" parent="xI2tX_Hjlg2Yhiu6L8t_-266">
          <mxGeometry y="1040" width="120" height="70" as="geometry" />
        </mxCell>
        <mxCell id="xI2tX_Hjlg2Yhiu6L8t_-184" value="" style="edgeStyle=orthogonalEdgeStyle;html=1;verticalAlign=bottom;endArrow=open;endSize=8;strokeColor=#ff0000;rounded=0;entryX=0.5;entryY=0;entryDx=0;entryDy=0;" edge="1" source="xI2tX_Hjlg2Yhiu6L8t_-183" parent="xI2tX_Hjlg2Yhiu6L8t_-266" target="xI2tX_Hjlg2Yhiu6L8t_-185">
          <mxGeometry relative="1" as="geometry">
            <mxPoint x="60" y="1170" as="targetPoint" />
          </mxGeometry>
        </mxCell>
        <mxCell id="xI2tX_Hjlg2Yhiu6L8t_-185" value="Service search the routine by old name" style="rounded=1;whiteSpace=wrap;html=1;arcSize=40;fontColor=#000000;fillColor=#ffffc0;strokeColor=#ff0000;" vertex="1" parent="xI2tX_Hjlg2Yhiu6L8t_-266">
          <mxGeometry y="1170" width="120" height="70" as="geometry" />
        </mxCell>
        <mxCell id="xI2tX_Hjlg2Yhiu6L8t_-186" value="" style="edgeStyle=orthogonalEdgeStyle;html=1;verticalAlign=bottom;endArrow=open;endSize=8;strokeColor=#ff0000;rounded=0;entryX=0.5;entryY=0;entryDx=0;entryDy=0;" edge="1" source="xI2tX_Hjlg2Yhiu6L8t_-185" parent="xI2tX_Hjlg2Yhiu6L8t_-266" target="xI2tX_Hjlg2Yhiu6L8t_-187">
          <mxGeometry relative="1" as="geometry">
            <mxPoint x="60" y="1300" as="targetPoint" />
          </mxGeometry>
        </mxCell>
        <mxCell id="xI2tX_Hjlg2Yhiu6L8t_-187" value="Service update the routine with new info" style="rounded=1;whiteSpace=wrap;html=1;arcSize=40;fontColor=#000000;fillColor=#ffffc0;strokeColor=#ff0000;" vertex="1" parent="xI2tX_Hjlg2Yhiu6L8t_-266">
          <mxGeometry y="1300" width="120" height="70" as="geometry" />
        </mxCell>
        <mxCell id="xI2tX_Hjlg2Yhiu6L8t_-188" value="" style="html=1;verticalAlign=bottom;endArrow=open;endSize=8;strokeColor=#ff0000;rounded=0;" edge="1" source="xI2tX_Hjlg2Yhiu6L8t_-187" parent="xI2tX_Hjlg2Yhiu6L8t_-266" target="xI2tX_Hjlg2Yhiu6L8t_-192">
          <mxGeometry relative="1" as="geometry">
            <mxPoint x="60" y="1430" as="targetPoint" />
          </mxGeometry>
        </mxCell>
        <mxCell id="xI2tX_Hjlg2Yhiu6L8t_-189" value="Console display user that routine have updated" style="rounded=1;whiteSpace=wrap;html=1;arcSize=40;fontColor=#000000;fillColor=#ffffc0;strokeColor=#ff0000;" vertex="1" parent="xI2tX_Hjlg2Yhiu6L8t_-266">
          <mxGeometry x="490" y="2290" width="120" height="70" as="geometry" />
        </mxCell>
        <mxCell id="xI2tX_Hjlg2Yhiu6L8t_-192" value="" style="shape=line;html=1;strokeWidth=6;strokeColor=#ff0000;" vertex="1" parent="xI2tX_Hjlg2Yhiu6L8t_-266">
          <mxGeometry x="450" y="2210" width="200" height="10" as="geometry" />
        </mxCell>
        <mxCell id="xI2tX_Hjlg2Yhiu6L8t_-193" value="" style="edgeStyle=orthogonalEdgeStyle;html=1;verticalAlign=bottom;endArrow=open;endSize=8;strokeColor=#ff0000;rounded=0;entryX=0.5;entryY=0;entryDx=0;entryDy=0;" edge="1" source="xI2tX_Hjlg2Yhiu6L8t_-192" parent="xI2tX_Hjlg2Yhiu6L8t_-266" target="xI2tX_Hjlg2Yhiu6L8t_-189">
          <mxGeometry relative="1" as="geometry">
            <mxPoint x="550" y="2150" as="targetPoint" />
          </mxGeometry>
        </mxCell>
        <mxCell id="xI2tX_Hjlg2Yhiu6L8t_-195" value="User selected to update category (2)" style="rounded=1;whiteSpace=wrap;html=1;arcSize=40;fontColor=#000000;fillColor=#ffffc0;strokeColor=#ff0000;" vertex="1" parent="xI2tX_Hjlg2Yhiu6L8t_-266">
          <mxGeometry x="170" y="380" width="120" height="60" as="geometry" />
        </mxCell>
        <mxCell id="xI2tX_Hjlg2Yhiu6L8t_-196" value="" style="edgeStyle=orthogonalEdgeStyle;html=1;verticalAlign=bottom;endArrow=open;endSize=8;strokeColor=#ff0000;rounded=0;entryX=0.5;entryY=0;entryDx=0;entryDy=0;" edge="1" source="xI2tX_Hjlg2Yhiu6L8t_-195" parent="xI2tX_Hjlg2Yhiu6L8t_-266" target="xI2tX_Hjlg2Yhiu6L8t_-197">
          <mxGeometry relative="1" as="geometry">
            <mxPoint x="230" y="520" as="targetPoint" />
          </mxGeometry>
        </mxCell>
        <mxCell id="xI2tX_Hjlg2Yhiu6L8t_-197" value="User enter the name" style="rounded=1;whiteSpace=wrap;html=1;arcSize=40;fontColor=#000000;fillColor=#ffffc0;strokeColor=#ff0000;" vertex="1" parent="xI2tX_Hjlg2Yhiu6L8t_-266">
          <mxGeometry x="170" y="520" width="120" height="60" as="geometry" />
        </mxCell>
        <mxCell id="xI2tX_Hjlg2Yhiu6L8t_-198" value="" style="edgeStyle=orthogonalEdgeStyle;html=1;verticalAlign=bottom;endArrow=open;endSize=8;strokeColor=#ff0000;rounded=0;entryX=0.5;entryY=0;entryDx=0;entryDy=0;" edge="1" source="xI2tX_Hjlg2Yhiu6L8t_-197" parent="xI2tX_Hjlg2Yhiu6L8t_-266" target="xI2tX_Hjlg2Yhiu6L8t_-199">
          <mxGeometry relative="1" as="geometry">
            <mxPoint x="230" y="660" as="targetPoint" />
          </mxGeometry>
        </mxCell>
        <mxCell id="xI2tX_Hjlg2Yhiu6L8t_-199" value="User enter the new category" style="rounded=1;whiteSpace=wrap;html=1;arcSize=40;fontColor=#000000;fillColor=#ffffc0;strokeColor=#ff0000;" vertex="1" parent="xI2tX_Hjlg2Yhiu6L8t_-266">
          <mxGeometry x="170" y="710" width="120" height="60" as="geometry" />
        </mxCell>
        <mxCell id="xI2tX_Hjlg2Yhiu6L8t_-200" value="" style="edgeStyle=orthogonalEdgeStyle;html=1;verticalAlign=bottom;endArrow=open;endSize=8;strokeColor=#ff0000;rounded=0;entryX=0.5;entryY=0;entryDx=0;entryDy=0;" edge="1" source="xI2tX_Hjlg2Yhiu6L8t_-199" parent="xI2tX_Hjlg2Yhiu6L8t_-266" target="xI2tX_Hjlg2Yhiu6L8t_-201">
          <mxGeometry relative="1" as="geometry">
            <mxPoint x="230" y="850" as="targetPoint" />
          </mxGeometry>
        </mxCell>
        <mxCell id="xI2tX_Hjlg2Yhiu6L8t_-201" value="UI send category service with info to update routine" style="rounded=1;whiteSpace=wrap;html=1;arcSize=40;fontColor=#000000;fillColor=#ffffc0;strokeColor=#ff0000;" vertex="1" parent="xI2tX_Hjlg2Yhiu6L8t_-266">
          <mxGeometry x="170" y="870" width="120" height="60" as="geometry" />
        </mxCell>
        <mxCell id="xI2tX_Hjlg2Yhiu6L8t_-202" value="" style="edgeStyle=orthogonalEdgeStyle;html=1;verticalAlign=bottom;endArrow=open;endSize=8;strokeColor=#ff0000;rounded=0;entryX=0.5;entryY=0;entryDx=0;entryDy=0;" edge="1" source="xI2tX_Hjlg2Yhiu6L8t_-201" parent="xI2tX_Hjlg2Yhiu6L8t_-266" target="xI2tX_Hjlg2Yhiu6L8t_-203">
          <mxGeometry relative="1" as="geometry">
            <mxPoint x="230" y="1010" as="targetPoint" />
          </mxGeometry>
        </mxCell>
        <mxCell id="xI2tX_Hjlg2Yhiu6L8t_-203" value="Service search routine by name" style="rounded=1;whiteSpace=wrap;html=1;arcSize=40;fontColor=#000000;fillColor=#ffffc0;strokeColor=#ff0000;" vertex="1" parent="xI2tX_Hjlg2Yhiu6L8t_-266">
          <mxGeometry x="170" y="1050" width="120" height="60" as="geometry" />
        </mxCell>
        <mxCell id="xI2tX_Hjlg2Yhiu6L8t_-204" value="" style="edgeStyle=orthogonalEdgeStyle;html=1;verticalAlign=bottom;endArrow=open;endSize=8;strokeColor=#ff0000;rounded=0;entryX=0.5;entryY=0;entryDx=0;entryDy=0;" edge="1" source="xI2tX_Hjlg2Yhiu6L8t_-203" parent="xI2tX_Hjlg2Yhiu6L8t_-266" target="xI2tX_Hjlg2Yhiu6L8t_-207">
          <mxGeometry relative="1" as="geometry">
            <mxPoint x="230" y="1190" as="targetPoint" />
          </mxGeometry>
        </mxCell>
        <mxCell id="xI2tX_Hjlg2Yhiu6L8t_-207" value="Service update routine with new info" style="rounded=1;whiteSpace=wrap;html=1;arcSize=40;fontColor=#000000;fillColor=#ffffc0;strokeColor=#ff0000;" vertex="1" parent="xI2tX_Hjlg2Yhiu6L8t_-266">
          <mxGeometry x="170" y="1230" width="120" height="60" as="geometry" />
        </mxCell>
        <mxCell id="xI2tX_Hjlg2Yhiu6L8t_-208" value="" style="html=1;verticalAlign=bottom;endArrow=open;endSize=8;strokeColor=#ff0000;rounded=0;" edge="1" source="xI2tX_Hjlg2Yhiu6L8t_-207" parent="xI2tX_Hjlg2Yhiu6L8t_-266" target="xI2tX_Hjlg2Yhiu6L8t_-192">
          <mxGeometry relative="1" as="geometry">
            <mxPoint x="230" y="1370" as="targetPoint" />
          </mxGeometry>
        </mxCell>
        <mxCell id="xI2tX_Hjlg2Yhiu6L8t_-209" value="" style="html=1;verticalAlign=bottom;endArrow=open;endSize=8;strokeColor=#ff0000;rounded=0;" edge="1" source="xI2tX_Hjlg2Yhiu6L8t_-210" parent="xI2tX_Hjlg2Yhiu6L8t_-266" target="xI2tX_Hjlg2Yhiu6L8t_-192">
          <mxGeometry relative="1" as="geometry">
            <mxPoint x="350" y="1580" as="targetPoint" />
          </mxGeometry>
        </mxCell>
        <mxCell id="xI2tX_Hjlg2Yhiu6L8t_-210" value="Service update routine with new info" style="rounded=1;whiteSpace=wrap;html=1;arcSize=40;fontColor=#000000;fillColor=#ffffc0;strokeColor=#ff0000;" vertex="1" parent="xI2tX_Hjlg2Yhiu6L8t_-266">
          <mxGeometry x="360" y="1230" width="120" height="60" as="geometry" />
        </mxCell>
        <mxCell id="xI2tX_Hjlg2Yhiu6L8t_-211" value="" style="edgeStyle=orthogonalEdgeStyle;html=1;verticalAlign=bottom;endArrow=open;endSize=8;strokeColor=#ff0000;rounded=0;entryX=0.5;entryY=0;entryDx=0;entryDy=0;" edge="1" source="xI2tX_Hjlg2Yhiu6L8t_-212" target="xI2tX_Hjlg2Yhiu6L8t_-210" parent="xI2tX_Hjlg2Yhiu6L8t_-266">
          <mxGeometry relative="1" as="geometry">
            <mxPoint x="420" y="1190" as="targetPoint" />
          </mxGeometry>
        </mxCell>
        <mxCell id="xI2tX_Hjlg2Yhiu6L8t_-212" value="Service search routine by name" style="rounded=1;whiteSpace=wrap;html=1;arcSize=40;fontColor=#000000;fillColor=#ffffc0;strokeColor=#ff0000;" vertex="1" parent="xI2tX_Hjlg2Yhiu6L8t_-266">
          <mxGeometry x="360" y="1050" width="120" height="60" as="geometry" />
        </mxCell>
        <mxCell id="xI2tX_Hjlg2Yhiu6L8t_-213" value="" style="edgeStyle=orthogonalEdgeStyle;html=1;verticalAlign=bottom;endArrow=open;endSize=8;strokeColor=#ff0000;rounded=0;entryX=0.5;entryY=0;entryDx=0;entryDy=0;" edge="1" source="xI2tX_Hjlg2Yhiu6L8t_-214" target="xI2tX_Hjlg2Yhiu6L8t_-212" parent="xI2tX_Hjlg2Yhiu6L8t_-266">
          <mxGeometry relative="1" as="geometry">
            <mxPoint x="420" y="1010" as="targetPoint" />
          </mxGeometry>
        </mxCell>
        <mxCell id="xI2tX_Hjlg2Yhiu6L8t_-214" value="UI send periodicity service with info to update routine" style="rounded=1;whiteSpace=wrap;html=1;arcSize=40;fontColor=#000000;fillColor=#ffffc0;strokeColor=#ff0000;" vertex="1" parent="xI2tX_Hjlg2Yhiu6L8t_-266">
          <mxGeometry x="360" y="870" width="120" height="60" as="geometry" />
        </mxCell>
        <mxCell id="xI2tX_Hjlg2Yhiu6L8t_-215" value="" style="edgeStyle=orthogonalEdgeStyle;html=1;verticalAlign=bottom;endArrow=open;endSize=8;strokeColor=#ff0000;rounded=0;entryX=0.5;entryY=0;entryDx=0;entryDy=0;" edge="1" source="xI2tX_Hjlg2Yhiu6L8t_-216" target="xI2tX_Hjlg2Yhiu6L8t_-214" parent="xI2tX_Hjlg2Yhiu6L8t_-266">
          <mxGeometry relative="1" as="geometry">
            <mxPoint x="420" y="850" as="targetPoint" />
          </mxGeometry>
        </mxCell>
        <mxCell id="xI2tX_Hjlg2Yhiu6L8t_-216" value="User enter the new periodicity" style="rounded=1;whiteSpace=wrap;html=1;arcSize=40;fontColor=#000000;fillColor=#ffffc0;strokeColor=#ff0000;" vertex="1" parent="xI2tX_Hjlg2Yhiu6L8t_-266">
          <mxGeometry x="360" y="710" width="120" height="60" as="geometry" />
        </mxCell>
        <mxCell id="xI2tX_Hjlg2Yhiu6L8t_-217" value="" style="edgeStyle=orthogonalEdgeStyle;html=1;verticalAlign=bottom;endArrow=open;endSize=8;strokeColor=#ff0000;rounded=0;entryX=0.5;entryY=0;entryDx=0;entryDy=0;" edge="1" source="xI2tX_Hjlg2Yhiu6L8t_-218" target="xI2tX_Hjlg2Yhiu6L8t_-216" parent="xI2tX_Hjlg2Yhiu6L8t_-266">
          <mxGeometry relative="1" as="geometry">
            <mxPoint x="420" y="660" as="targetPoint" />
          </mxGeometry>
        </mxCell>
        <mxCell id="xI2tX_Hjlg2Yhiu6L8t_-218" value="User enter the name" style="rounded=1;whiteSpace=wrap;html=1;arcSize=40;fontColor=#000000;fillColor=#ffffc0;strokeColor=#ff0000;" vertex="1" parent="xI2tX_Hjlg2Yhiu6L8t_-266">
          <mxGeometry x="360" y="520" width="120" height="60" as="geometry" />
        </mxCell>
        <mxCell id="xI2tX_Hjlg2Yhiu6L8t_-219" value="" style="edgeStyle=orthogonalEdgeStyle;html=1;verticalAlign=bottom;endArrow=open;endSize=8;strokeColor=#ff0000;rounded=0;entryX=0.5;entryY=0;entryDx=0;entryDy=0;" edge="1" source="xI2tX_Hjlg2Yhiu6L8t_-220" target="xI2tX_Hjlg2Yhiu6L8t_-218" parent="xI2tX_Hjlg2Yhiu6L8t_-266">
          <mxGeometry relative="1" as="geometry">
            <mxPoint x="420" y="520" as="targetPoint" />
          </mxGeometry>
        </mxCell>
        <mxCell id="xI2tX_Hjlg2Yhiu6L8t_-220" value="User selected to update periodicity (3)" style="rounded=1;whiteSpace=wrap;html=1;arcSize=40;fontColor=#000000;fillColor=#ffffc0;strokeColor=#ff0000;" vertex="1" parent="xI2tX_Hjlg2Yhiu6L8t_-266">
          <mxGeometry x="360" y="380" width="120" height="60" as="geometry" />
        </mxCell>
        <mxCell id="xI2tX_Hjlg2Yhiu6L8t_-221" value="" style="html=1;verticalAlign=bottom;endArrow=open;endSize=8;strokeColor=#ff0000;rounded=0;entryX=0.5;entryY=0;entryDx=0;entryDy=0;" edge="1" target="xI2tX_Hjlg2Yhiu6L8t_-220" parent="xI2tX_Hjlg2Yhiu6L8t_-266" source="xI2tX_Hjlg2Yhiu6L8t_-168">
          <mxGeometry relative="1" as="geometry">
            <mxPoint x="420" y="380" as="targetPoint" />
            <mxPoint x="531" y="230" as="sourcePoint" />
          </mxGeometry>
        </mxCell>
        <mxCell id="xI2tX_Hjlg2Yhiu6L8t_-222" value="User selected to update tasks (4)" style="rounded=1;whiteSpace=wrap;html=1;arcSize=40;fontColor=#000000;fillColor=#ffffc0;strokeColor=#ff0000;" vertex="1" parent="xI2tX_Hjlg2Yhiu6L8t_-266">
          <mxGeometry x="580" y="400" width="120" height="60" as="geometry" />
        </mxCell>
        <mxCell id="xI2tX_Hjlg2Yhiu6L8t_-223" value="" style="edgeStyle=orthogonalEdgeStyle;html=1;verticalAlign=bottom;endArrow=open;endSize=8;strokeColor=#ff0000;rounded=0;entryX=0.5;entryY=0;entryDx=0;entryDy=0;" edge="1" source="xI2tX_Hjlg2Yhiu6L8t_-222" target="xI2tX_Hjlg2Yhiu6L8t_-224" parent="xI2tX_Hjlg2Yhiu6L8t_-266">
          <mxGeometry relative="1" as="geometry">
            <mxPoint x="860" y="570" as="targetPoint" />
          </mxGeometry>
        </mxCell>
        <mxCell id="xI2tX_Hjlg2Yhiu6L8t_-224" value="User enter the name" style="rounded=1;whiteSpace=wrap;html=1;arcSize=40;fontColor=#000000;fillColor=#ffffc0;strokeColor=#ff0000;" vertex="1" parent="xI2tX_Hjlg2Yhiu6L8t_-266">
          <mxGeometry x="580" y="540" width="120" height="60" as="geometry" />
        </mxCell>
        <mxCell id="xI2tX_Hjlg2Yhiu6L8t_-225" value="" style="edgeStyle=orthogonalEdgeStyle;html=1;verticalAlign=bottom;endArrow=open;endSize=8;strokeColor=#ff0000;rounded=0;entryX=0.5;entryY=0;entryDx=0;entryDy=0;" edge="1" source="xI2tX_Hjlg2Yhiu6L8t_-224" parent="xI2tX_Hjlg2Yhiu6L8t_-266" target="xI2tX_Hjlg2Yhiu6L8t_-256">
          <mxGeometry relative="1" as="geometry">
            <mxPoint x="1030" y="660" as="targetPoint" />
          </mxGeometry>
        </mxCell>
        <mxCell id="xI2tX_Hjlg2Yhiu6L8t_-256" value="Console display to add, edit, or delete tasks" style="rounded=1;whiteSpace=wrap;html=1;arcSize=40;fontColor=#000000;fillColor=#ffffc0;strokeColor=#ff0000;" vertex="1" parent="xI2tX_Hjlg2Yhiu6L8t_-266">
          <mxGeometry x="580" y="660" width="120" height="50" as="geometry" />
        </mxCell>
        <mxCell id="xI2tX_Hjlg2Yhiu6L8t_-257" value="" style="html=1;verticalAlign=bottom;endArrow=open;endSize=8;strokeColor=#ff0000;rounded=0;" edge="1" source="xI2tX_Hjlg2Yhiu6L8t_-256" parent="xI2tX_Hjlg2Yhiu6L8t_-266" target="xI2tX_Hjlg2Yhiu6L8t_-228">
          <mxGeometry relative="1" as="geometry">
            <mxPoint x="866" y="795" as="targetPoint" />
          </mxGeometry>
        </mxCell>
        <mxCell id="xI2tX_Hjlg2Yhiu6L8t_-179" value="User enter the new description" style="rounded=1;whiteSpace=wrap;html=1;arcSize=40;fontColor=#000000;fillColor=#ffffc0;strokeColor=#ff0000;" vertex="1" parent="xI2tX_Hjlg2Yhiu6L8t_-266">
          <mxGeometry y="770" width="120" height="70" as="geometry" />
        </mxCell>
        <mxCell id="xI2tX_Hjlg2Yhiu6L8t_-178" value="" style="edgeStyle=orthogonalEdgeStyle;html=1;verticalAlign=bottom;endArrow=open;endSize=8;strokeColor=#ff0000;rounded=0;entryX=0.5;entryY=0;entryDx=0;entryDy=0;" edge="1" source="xI2tX_Hjlg2Yhiu6L8t_-177" parent="xI2tX_Hjlg2Yhiu6L8t_-266" target="xI2tX_Hjlg2Yhiu6L8t_-179">
          <mxGeometry relative="1" as="geometry">
            <mxPoint x="-2920" y="1140" as="targetPoint" />
          </mxGeometry>
        </mxCell>
        <mxCell id="xI2tX_Hjlg2Yhiu6L8t_-180" value="" style="edgeStyle=orthogonalEdgeStyle;html=1;verticalAlign=bottom;endArrow=open;endSize=8;strokeColor=#ff0000;rounded=0;entryX=0.5;entryY=0;entryDx=0;entryDy=0;" edge="1" source="xI2tX_Hjlg2Yhiu6L8t_-179" parent="xI2tX_Hjlg2Yhiu6L8t_-266" target="xI2tX_Hjlg2Yhiu6L8t_-181">
          <mxGeometry relative="1" as="geometry">
            <mxPoint x="-2920" y="1270" as="targetPoint" />
          </mxGeometry>
        </mxCell>
        <mxCell id="xI2tX_Hjlg2Yhiu6L8t_-362" value="User selected to exit the task list (0)" style="rounded=1;whiteSpace=wrap;html=1;arcSize=40;fontColor=#000000;fillColor=#ffffc0;strokeColor=#ff0000;" vertex="1" parent="xI2tX_Hjlg2Yhiu6L8t_-364">
          <mxGeometry x="630" y="1549.04" width="120" height="70" as="geometry" />
        </mxCell>
        <mxCell id="xI2tX_Hjlg2Yhiu6L8t_-253" value="" style="html=1;verticalAlign=bottom;endArrow=open;endSize=8;strokeColor=#ff0000;rounded=0;entryX=0.5;entryY=0;entryDx=0;entryDy=0;" edge="1" parent="xI2tX_Hjlg2Yhiu6L8t_-364" source="xI2tX_Hjlg2Yhiu6L8t_-242" target="xI2tX_Hjlg2Yhiu6L8t_-362">
          <mxGeometry relative="1" as="geometry">
            <mxPoint x="865" y="1699.52" as="targetPoint" />
            <mxPoint x="853.1862447050571" y="1587.998653846154" as="sourcePoint" />
          </mxGeometry>
        </mxCell>
        <mxCell id="xI2tX_Hjlg2Yhiu6L8t_-363" value="" style="edgeStyle=orthogonalEdgeStyle;html=1;verticalAlign=bottom;endArrow=open;endSize=8;strokeColor=#ff0000;rounded=0;entryX=0.5;entryY=0;entryDx=0;entryDy=0;" edge="1" source="xI2tX_Hjlg2Yhiu6L8t_-362" parent="xI2tX_Hjlg2Yhiu6L8t_-365" target="xI2tX_Hjlg2Yhiu6L8t_-254">
          <mxGeometry relative="1" as="geometry">
            <mxPoint x="685" y="1679.52" as="targetPoint" />
          </mxGeometry>
        </mxCell>
        <mxCell id="xI2tX_Hjlg2Yhiu6L8t_-1" value="" style="ellipse;html=1;shape=startState;fillColor=#000000;strokeColor=#ff0000;" vertex="1" parent="1">
          <mxGeometry x="170" y="165" width="30" height="30" as="geometry" />
        </mxCell>
        <mxCell id="xI2tX_Hjlg2Yhiu6L8t_-2" value="" style="html=1;verticalAlign=bottom;endArrow=open;endSize=8;strokeColor=#ff0000;rounded=0;entryX=0;entryY=0.5;entryDx=0;entryDy=0;" edge="1" source="xI2tX_Hjlg2Yhiu6L8t_-1" parent="1" target="xI2tX_Hjlg2Yhiu6L8t_-4">
          <mxGeometry relative="1" as="geometry">
            <mxPoint x="425" y="150" as="targetPoint" />
          </mxGeometry>
        </mxCell>
        <mxCell id="xI2tX_Hjlg2Yhiu6L8t_-3" value="" style="ellipse;html=1;shape=endState;fillColor=#000000;strokeColor=#ff0000;" vertex="1" parent="1">
          <mxGeometry x="520" y="4015" width="30" height="30" as="geometry" />
        </mxCell>
        <mxCell id="xI2tX_Hjlg2Yhiu6L8t_-4" value="Console display to choose option to open either entries" style="rounded=1;whiteSpace=wrap;html=1;arcSize=40;fontColor=#000000;fillColor=#ffffc0;strokeColor=#ff0000;" vertex="1" parent="1">
          <mxGeometry x="355" y="150" width="120" height="60" as="geometry" />
        </mxCell>
        <mxCell id="xI2tX_Hjlg2Yhiu6L8t_-5" value="" style="html=1;verticalAlign=bottom;endArrow=open;endSize=8;strokeColor=#ff0000;rounded=0;entryX=0.5;entryY=0;entryDx=0;entryDy=0;" edge="1" source="xI2tX_Hjlg2Yhiu6L8t_-4" parent="1" target="xI2tX_Hjlg2Yhiu6L8t_-6">
          <mxGeometry relative="1" as="geometry">
            <mxPoint x="420" y="280" as="targetPoint" />
          </mxGeometry>
        </mxCell>
        <mxCell id="xI2tX_Hjlg2Yhiu6L8t_-6" value="User selected Routine Entry" style="rounded=1;whiteSpace=wrap;html=1;arcSize=40;fontColor=#000000;fillColor=#ffffc0;strokeColor=#ff0000;" vertex="1" parent="1">
          <mxGeometry x="355" y="280" width="120" height="40" as="geometry" />
        </mxCell>
        <mxCell id="xI2tX_Hjlg2Yhiu6L8t_-7" value="" style="edgeStyle=orthogonalEdgeStyle;html=1;verticalAlign=bottom;endArrow=open;endSize=8;strokeColor=#ff0000;rounded=0;entryX=0.5;entryY=0;entryDx=0;entryDy=0;" edge="1" source="xI2tX_Hjlg2Yhiu6L8t_-6" parent="1" target="xI2tX_Hjlg2Yhiu6L8t_-8">
          <mxGeometry relative="1" as="geometry">
            <mxPoint x="425" y="380" as="targetPoint" />
          </mxGeometry>
        </mxCell>
        <mxCell id="xI2tX_Hjlg2Yhiu6L8t_-78" value="" style="edgeStyle=orthogonalEdgeStyle;html=1;verticalAlign=bottom;endArrow=open;endSize=8;strokeColor=#ff0000;rounded=0;entryX=0.5;entryY=0;entryDx=0;entryDy=0;" edge="1" source="xI2tX_Hjlg2Yhiu6L8t_-77" parent="1" target="xI2tX_Hjlg2Yhiu6L8t_-340">
          <mxGeometry relative="1" as="geometry">
            <mxPoint x="210" y="3800.800048828125" as="targetPoint" />
          </mxGeometry>
        </mxCell>
        <mxCell id="xI2tX_Hjlg2Yhiu6L8t_-340" value="User selected to exit the routine entries (0)" style="rounded=1;whiteSpace=wrap;html=1;arcSize=40;fontColor=#000000;fillColor=#ffffc0;strokeColor=#ff0000;" vertex="1" parent="1">
          <mxGeometry x="140" y="3810" width="120" height="40" as="geometry" />
        </mxCell>
        <mxCell id="xI2tX_Hjlg2Yhiu6L8t_-341" value="" style="edgeStyle=orthogonalEdgeStyle;html=1;verticalAlign=bottom;endArrow=open;endSize=8;strokeColor=#ff0000;rounded=0;" edge="1" source="xI2tX_Hjlg2Yhiu6L8t_-340" parent="1">
          <mxGeometry relative="1" as="geometry">
            <mxPoint x="200" y="3910" as="targetPoint" />
          </mxGeometry>
        </mxCell>
        <mxCell id="xI2tX_Hjlg2Yhiu6L8t_-342" value="Routine manager closed" style="rounded=1;whiteSpace=wrap;html=1;arcSize=40;fontColor=#000000;fillColor=#ffffc0;strokeColor=#ff0000;" vertex="1" parent="1">
          <mxGeometry x="140" y="3910" width="120" height="40" as="geometry" />
        </mxCell>
        <mxCell id="xI2tX_Hjlg2Yhiu6L8t_-343" value="" style="edgeStyle=orthogonalEdgeStyle;html=1;verticalAlign=bottom;endArrow=open;endSize=8;strokeColor=#ff0000;rounded=0;" edge="1" source="xI2tX_Hjlg2Yhiu6L8t_-342" parent="1">
          <mxGeometry relative="1" as="geometry">
            <mxPoint x="200" y="4010" as="targetPoint" />
          </mxGeometry>
        </mxCell>
        <mxCell id="xI2tX_Hjlg2Yhiu6L8t_-344" value="User selected to exit the app" style="rounded=1;whiteSpace=wrap;html=1;arcSize=40;fontColor=#000000;fillColor=#ffffc0;strokeColor=#ff0000;" vertex="1" parent="1">
          <mxGeometry x="140" y="4010" width="120" height="40" as="geometry" />
        </mxCell>
        <mxCell id="xI2tX_Hjlg2Yhiu6L8t_-345" value="" style="html=1;verticalAlign=bottom;endArrow=open;endSize=8;strokeColor=#ff0000;rounded=0;entryX=0;entryY=0.5;entryDx=0;entryDy=0;" edge="1" source="xI2tX_Hjlg2Yhiu6L8t_-344" parent="1" target="xI2tX_Hjlg2Yhiu6L8t_-3">
          <mxGeometry relative="1" as="geometry">
            <mxPoint x="520" y="4030" as="targetPoint" />
          </mxGeometry>
        </mxCell>
      </root>
    </mxGraphModel>
  </diagram>
</mxfile>
